M48
;GenerationSoftware,Autodesk,EAGLE,9.6.2*%
;CreationDate,2021-06-15T03:43:09Z*%
FMAT,2
ICI,OFF
METRIC,TZ,000.000
T11C0.350
T10C0.500
T9C0.700
T8C0.800
T7C0.900
T6C0.965
T5C1.000
T4C1.016
T3C1.200
T2C1.500
T1C3.500
%
G90
M71
T1
X4000Y96000
X53000Y96000
X53000Y4000
X4000Y4000
T2
X30000Y39000
X8400Y22100
T3
X53360Y25890
X53360Y22390
X3610Y25780
X3610Y22280
X42670Y3640
X39170Y3640
X17810Y3640
X14310Y3640
X17950Y96390
X14450Y96390
X42840Y96500
X39340Y96500
T4
X27240Y17250
X38890Y30080
X31010Y2180
X25880Y7210
X25880Y4670
X25880Y2130
X31010Y7260
X51750Y88460
X51750Y85920
X51750Y83380
X4500Y88390
X51750Y11420
X4500Y85850
X27240Y22330
X29780Y22330
X27240Y19790
X51750Y13960
X51750Y16500
X4500Y11490
X4500Y14030
X4500Y16570
X4500Y83310
X36350Y30080
X31010Y4720
X41430Y30080
X29780Y12170
X27240Y12170
X29780Y14710
X27240Y14710
X29780Y17250
X29780Y19790
T5
X22290Y46420
X22290Y36260
X22290Y38800
X22290Y41340
X22290Y43880
X17110Y58760
X17110Y61300
X17110Y63840
X17110Y66380
X17110Y68920
X17110Y71460
X17110Y74000
X22290Y54040
X22290Y51500
X22290Y48960
T6
X24080Y58800
X26620Y58800
X29160Y58800
X31700Y58800
X34240Y58800
X36780Y58800
X39320Y58800
X41860Y58800
X44400Y58800
X46940Y58800
X49480Y58800
X52020Y58800
X54560Y58800
X21540Y58800
X21540Y61340
X21540Y63880
X21540Y66420
X21540Y68960
X21540Y71500
X21540Y74040
X24080Y74040
X26620Y74040
X29160Y74040
X31700Y74040
X34240Y74040
X36780Y74040
X39320Y74040
X41860Y74040
X44400Y74040
X46940Y74040
X49480Y74040
X52020Y74040
X54560Y74040
T7
X52230Y77560
X44610Y77560
X45140Y86010
X37520Y86010
X37660Y82320
X45280Y82320
X12500Y86070
X20120Y86070
X33950Y77560
X41570Y77560
X15890Y77660
X23510Y77660
X22440Y21230
X22440Y28850
X54410Y29830
X46790Y29830
X54370Y32130
X46750Y32130
X44780Y14130
X37160Y14130
X37070Y17780
X44690Y17780
X12110Y14180
X19730Y14180
X19800Y17820
X12180Y17820
X12540Y82430
X20160Y82430
X18120Y26680
X11620Y26680
T8
X30649Y79132
X29379Y81068
X27855Y79132
X26331Y81068
X15920Y51090
X15920Y48550
X15920Y35850
X15920Y38390
X15920Y53630
X15920Y40930
X15920Y46010
X15920Y43470
T9
X45750Y25830
X36390Y22630
X33850Y22630
X44430Y20530
X44430Y23070
X43210Y25830
T10
X45600Y71400
X20000Y74800
X46700Y41600
X26000Y69000
X28800Y29300
X43900Y42100
X43100Y11200
X24000Y12000
X32700Y11900
X35200Y17000
X32800Y18400
X12800Y40900
X12900Y37800
X27000Y43100
X27000Y46500
X45100Y44400
X38600Y20100
X35400Y61000
X48500Y54300
X6600Y38100
X4400Y38400
X44500Y43300
T11
X26500Y24900
X29400Y31300
X28100Y25000
X20100Y26900
X24200Y25900
X24700Y20900
M30