G04 EAGLE Gerber RS-274X export*
G75*
%MOMM*%
%FSLAX34Y34*%
%LPD*%
%IN*%
%IPPOS*%
%AMOC8*
5,1,8,0,0,1.08239X$1,22.5*%
G01*
%ADD10C,0.254000*%


D10*
X0Y0D02*
X570000Y0D01*
X570000Y1000000D01*
X0Y1000000D01*
X0Y0D01*
X57500Y39427D02*
X57425Y38284D01*
X57276Y37148D01*
X57052Y36024D01*
X56755Y34917D01*
X56387Y33832D01*
X55949Y32774D01*
X55442Y31746D01*
X54869Y30754D01*
X54232Y29801D01*
X53535Y28892D01*
X52779Y28031D01*
X51969Y27221D01*
X51108Y26465D01*
X50199Y25768D01*
X49246Y25131D01*
X48254Y24558D01*
X47226Y24051D01*
X46168Y23613D01*
X45083Y23245D01*
X43976Y22948D01*
X42852Y22725D01*
X41716Y22575D01*
X40573Y22500D01*
X39427Y22500D01*
X38284Y22575D01*
X37148Y22725D01*
X36024Y22948D01*
X34917Y23245D01*
X33832Y23613D01*
X32774Y24051D01*
X31746Y24558D01*
X30754Y25131D01*
X29801Y25768D01*
X28892Y26465D01*
X28031Y27221D01*
X27221Y28031D01*
X26465Y28892D01*
X25768Y29801D01*
X25131Y30754D01*
X24558Y31746D01*
X24051Y32774D01*
X23613Y33832D01*
X23245Y34917D01*
X22948Y36024D01*
X22725Y37148D01*
X22575Y38284D01*
X22500Y39427D01*
X22500Y40573D01*
X22575Y41716D01*
X22725Y42852D01*
X22948Y43976D01*
X23245Y45083D01*
X23613Y46168D01*
X24051Y47226D01*
X24558Y48254D01*
X25131Y49246D01*
X25768Y50199D01*
X26465Y51108D01*
X27221Y51969D01*
X28031Y52779D01*
X28892Y53535D01*
X29801Y54232D01*
X30754Y54869D01*
X31746Y55442D01*
X32774Y55949D01*
X33832Y56387D01*
X34917Y56755D01*
X36024Y57052D01*
X37148Y57276D01*
X38284Y57425D01*
X39427Y57500D01*
X40573Y57500D01*
X41716Y57425D01*
X42852Y57276D01*
X43976Y57052D01*
X45083Y56755D01*
X46168Y56387D01*
X47226Y55949D01*
X48254Y55442D01*
X49246Y54869D01*
X50199Y54232D01*
X51108Y53535D01*
X51969Y52779D01*
X52779Y51969D01*
X53535Y51108D01*
X54232Y50199D01*
X54869Y49246D01*
X55442Y48254D01*
X55949Y47226D01*
X56387Y46168D01*
X56755Y45083D01*
X57052Y43976D01*
X57276Y42852D01*
X57425Y41716D01*
X57500Y40573D01*
X57500Y39427D01*
X547500Y39427D02*
X547425Y38284D01*
X547276Y37148D01*
X547052Y36024D01*
X546755Y34917D01*
X546387Y33832D01*
X545949Y32774D01*
X545442Y31746D01*
X544869Y30754D01*
X544232Y29801D01*
X543535Y28892D01*
X542779Y28031D01*
X541969Y27221D01*
X541108Y26465D01*
X540199Y25768D01*
X539246Y25131D01*
X538254Y24558D01*
X537226Y24051D01*
X536168Y23613D01*
X535083Y23245D01*
X533976Y22948D01*
X532852Y22725D01*
X531716Y22575D01*
X530573Y22500D01*
X529427Y22500D01*
X528284Y22575D01*
X527148Y22725D01*
X526024Y22948D01*
X524917Y23245D01*
X523832Y23613D01*
X522774Y24051D01*
X521746Y24558D01*
X520754Y25131D01*
X519801Y25768D01*
X518892Y26465D01*
X518031Y27221D01*
X517221Y28031D01*
X516465Y28892D01*
X515768Y29801D01*
X515131Y30754D01*
X514558Y31746D01*
X514051Y32774D01*
X513613Y33832D01*
X513245Y34917D01*
X512948Y36024D01*
X512725Y37148D01*
X512575Y38284D01*
X512500Y39427D01*
X512500Y40573D01*
X512575Y41716D01*
X512725Y42852D01*
X512948Y43976D01*
X513245Y45083D01*
X513613Y46168D01*
X514051Y47226D01*
X514558Y48254D01*
X515131Y49246D01*
X515768Y50199D01*
X516465Y51108D01*
X517221Y51969D01*
X518031Y52779D01*
X518892Y53535D01*
X519801Y54232D01*
X520754Y54869D01*
X521746Y55442D01*
X522774Y55949D01*
X523832Y56387D01*
X524917Y56755D01*
X526024Y57052D01*
X527148Y57276D01*
X528284Y57425D01*
X529427Y57500D01*
X530573Y57500D01*
X531716Y57425D01*
X532852Y57276D01*
X533976Y57052D01*
X535083Y56755D01*
X536168Y56387D01*
X537226Y55949D01*
X538254Y55442D01*
X539246Y54869D01*
X540199Y54232D01*
X541108Y53535D01*
X541969Y52779D01*
X542779Y51969D01*
X543535Y51108D01*
X544232Y50199D01*
X544869Y49246D01*
X545442Y48254D01*
X545949Y47226D01*
X546387Y46168D01*
X546755Y45083D01*
X547052Y43976D01*
X547276Y42852D01*
X547425Y41716D01*
X547500Y40573D01*
X547500Y39427D01*
X547500Y959427D02*
X547425Y958284D01*
X547276Y957148D01*
X547052Y956024D01*
X546755Y954917D01*
X546387Y953832D01*
X545949Y952774D01*
X545442Y951746D01*
X544869Y950754D01*
X544232Y949801D01*
X543535Y948892D01*
X542779Y948031D01*
X541969Y947221D01*
X541108Y946465D01*
X540199Y945768D01*
X539246Y945131D01*
X538254Y944558D01*
X537226Y944051D01*
X536168Y943613D01*
X535083Y943245D01*
X533976Y942948D01*
X532852Y942725D01*
X531716Y942575D01*
X530573Y942500D01*
X529427Y942500D01*
X528284Y942575D01*
X527148Y942725D01*
X526024Y942948D01*
X524917Y943245D01*
X523832Y943613D01*
X522774Y944051D01*
X521746Y944558D01*
X520754Y945131D01*
X519801Y945768D01*
X518892Y946465D01*
X518031Y947221D01*
X517221Y948031D01*
X516465Y948892D01*
X515768Y949801D01*
X515131Y950754D01*
X514558Y951746D01*
X514051Y952774D01*
X513613Y953832D01*
X513245Y954917D01*
X512948Y956024D01*
X512725Y957148D01*
X512575Y958284D01*
X512500Y959427D01*
X512500Y960573D01*
X512575Y961716D01*
X512725Y962852D01*
X512948Y963976D01*
X513245Y965083D01*
X513613Y966168D01*
X514051Y967226D01*
X514558Y968254D01*
X515131Y969246D01*
X515768Y970199D01*
X516465Y971108D01*
X517221Y971969D01*
X518031Y972779D01*
X518892Y973535D01*
X519801Y974232D01*
X520754Y974869D01*
X521746Y975442D01*
X522774Y975949D01*
X523832Y976387D01*
X524917Y976755D01*
X526024Y977052D01*
X527148Y977276D01*
X528284Y977425D01*
X529427Y977500D01*
X530573Y977500D01*
X531716Y977425D01*
X532852Y977276D01*
X533976Y977052D01*
X535083Y976755D01*
X536168Y976387D01*
X537226Y975949D01*
X538254Y975442D01*
X539246Y974869D01*
X540199Y974232D01*
X541108Y973535D01*
X541969Y972779D01*
X542779Y971969D01*
X543535Y971108D01*
X544232Y970199D01*
X544869Y969246D01*
X545442Y968254D01*
X545949Y967226D01*
X546387Y966168D01*
X546755Y965083D01*
X547052Y963976D01*
X547276Y962852D01*
X547425Y961716D01*
X547500Y960573D01*
X547500Y959427D01*
X57500Y959427D02*
X57425Y958284D01*
X57276Y957148D01*
X57052Y956024D01*
X56755Y954917D01*
X56387Y953832D01*
X55949Y952774D01*
X55442Y951746D01*
X54869Y950754D01*
X54232Y949801D01*
X53535Y948892D01*
X52779Y948031D01*
X51969Y947221D01*
X51108Y946465D01*
X50199Y945768D01*
X49246Y945131D01*
X48254Y944558D01*
X47226Y944051D01*
X46168Y943613D01*
X45083Y943245D01*
X43976Y942948D01*
X42852Y942725D01*
X41716Y942575D01*
X40573Y942500D01*
X39427Y942500D01*
X38284Y942575D01*
X37148Y942725D01*
X36024Y942948D01*
X34917Y943245D01*
X33832Y943613D01*
X32774Y944051D01*
X31746Y944558D01*
X30754Y945131D01*
X29801Y945768D01*
X28892Y946465D01*
X28031Y947221D01*
X27221Y948031D01*
X26465Y948892D01*
X25768Y949801D01*
X25131Y950754D01*
X24558Y951746D01*
X24051Y952774D01*
X23613Y953832D01*
X23245Y954917D01*
X22948Y956024D01*
X22725Y957148D01*
X22575Y958284D01*
X22500Y959427D01*
X22500Y960573D01*
X22575Y961716D01*
X22725Y962852D01*
X22948Y963976D01*
X23245Y965083D01*
X23613Y966168D01*
X24051Y967226D01*
X24558Y968254D01*
X25131Y969246D01*
X25768Y970199D01*
X26465Y971108D01*
X27221Y971969D01*
X28031Y972779D01*
X28892Y973535D01*
X29801Y974232D01*
X30754Y974869D01*
X31746Y975442D01*
X32774Y975949D01*
X33832Y976387D01*
X34917Y976755D01*
X36024Y977052D01*
X37148Y977276D01*
X38284Y977425D01*
X39427Y977500D01*
X40573Y977500D01*
X41716Y977425D01*
X42852Y977276D01*
X43976Y977052D01*
X45083Y976755D01*
X46168Y976387D01*
X47226Y975949D01*
X48254Y975442D01*
X49246Y974869D01*
X50199Y974232D01*
X51108Y973535D01*
X51969Y972779D01*
X52779Y971969D01*
X53535Y971108D01*
X54232Y970199D01*
X54869Y969246D01*
X55442Y968254D01*
X55949Y967226D01*
X56387Y966168D01*
X56755Y965083D01*
X57052Y963976D01*
X57276Y962852D01*
X57425Y961716D01*
X57500Y960573D01*
X57500Y959427D01*
M02*
