G04 EAGLE Gerber RS-274X export*
G75*
%MOMM*%
%FSLAX34Y34*%
%LPD*%
%INSilkscreen Bottom*%
%IPPOS*%
%AMOC8*
5,1,8,0,0,1.08239X$1,22.5*%
G01*
%ADD10R,0.599441X0.066803*%
%ADD11R,0.601981X0.066547*%
%ADD12R,0.934719X0.066547*%
%ADD13R,0.932178X0.066803*%
%ADD14R,1.066800X0.066803*%
%ADD15R,1.066800X0.066547*%
%ADD16R,1.132841X0.066547*%
%ADD17R,1.135381X0.066803*%
%ADD18R,1.132841X0.066803*%
%ADD19R,0.464822X0.066547*%
%ADD20R,0.266700X0.066547*%
%ADD21R,0.467363X0.066803*%
%ADD22R,0.266700X0.066803*%
%ADD23R,0.398781X0.066803*%
%ADD24R,0.068578X0.066803*%
%ADD25R,0.401322X0.066547*%
%ADD26R,0.066037X0.066547*%
%ADD27R,0.398781X0.066547*%
%ADD28R,0.401322X0.066803*%
%ADD29R,0.533400X0.066803*%
%ADD30R,0.533400X0.066547*%
%ADD31R,0.731522X0.066547*%
%ADD32R,0.734063X0.066803*%
%ADD33R,0.800100X0.066803*%
%ADD34R,0.800100X0.066547*%
%ADD35R,0.866141X0.066547*%
%ADD36R,0.866141X0.066550*%
%ADD37R,0.868678X0.066550*%
%ADD38R,0.866138X0.066800*%
%ADD39R,0.800100X0.066800*%
%ADD40R,0.800100X0.066550*%
%ADD41R,0.599441X0.066550*%
%ADD42R,0.599441X0.066800*%
%ADD43R,0.467359X0.066800*%
%ADD44R,0.464819X0.066550*%
%ADD45R,0.401319X0.066550*%
%ADD46R,0.398778X0.066800*%
%ADD47R,0.401319X0.066800*%
%ADD48R,0.398778X0.066550*%
%ADD49R,0.134619X0.066800*%
%ADD50R,0.132078X0.066550*%
%ADD51R,1.000759X0.066550*%
%ADD52R,0.998219X0.066800*%
%ADD53R,0.934719X0.066800*%
%ADD54R,0.932178X0.066550*%
%ADD55R,0.932181X0.066550*%
%ADD56R,0.934722X0.066800*%
%ADD57R,0.533400X0.066550*%
%ADD58R,0.533400X0.066800*%
%ADD59R,1.198881X0.066547*%
%ADD60R,1.201422X0.066803*%
%ADD61R,1.198881X0.066803*%
%ADD62R,1.201422X0.066547*%
%ADD63R,0.665481X0.066547*%
%ADD64R,0.668022X0.066803*%
%ADD65R,0.665481X0.066803*%
%ADD66R,0.668022X0.066547*%
%ADD67R,0.332738X0.066550*%
%ADD68R,0.332741X0.066550*%
%ADD69R,0.332738X0.066800*%
%ADD70R,0.332741X0.066800*%
%ADD71R,1.534159X0.066800*%
%ADD72R,1.531619X0.066800*%
%ADD73R,1.534159X0.066550*%
%ADD74R,1.531619X0.066550*%
%ADD75R,1.534159X0.066547*%
%ADD76R,1.531619X0.066547*%
%ADD77R,0.332738X0.066803*%
%ADD78R,0.332741X0.066803*%
%ADD79R,0.332738X0.066547*%
%ADD80R,0.401319X0.066547*%
%ADD81R,0.332741X0.066547*%
%ADD82R,0.467359X0.066803*%
%ADD83R,0.401319X0.066803*%
%ADD84R,0.464819X0.066547*%
%ADD85R,0.464819X0.066803*%
%ADD86R,0.467359X0.066547*%
%ADD87R,0.467363X0.066547*%
%ADD88R,0.932178X0.066547*%
%ADD89R,0.734059X0.066547*%
%ADD90R,0.599441X0.066547*%
%ADD91R,1.201419X0.066547*%
%ADD92R,1.267459X0.066803*%
%ADD93R,0.734059X0.066803*%
%ADD94R,0.934719X0.066803*%
%ADD95R,1.531622X0.066803*%
%ADD96R,0.398778X0.066547*%
%ADD97R,1.531622X0.066547*%
%ADD98R,0.464822X0.066803*%
%ADD99R,1.465581X0.066803*%
%ADD100R,0.530859X0.066803*%
%ADD101R,1.201419X0.066803*%
%ADD102R,1.267459X0.066547*%
%ADD103R,0.335278X0.066547*%
%ADD104R,0.467359X0.066550*%
%ADD105R,1.333500X0.066550*%
%ADD106R,0.335278X0.066550*%
%ADD107R,0.398781X0.066800*%
%ADD108R,0.398781X0.066550*%
%ADD109R,0.335278X0.066800*%
%ADD110R,1.066800X0.066800*%
%ADD111R,1.267459X0.066800*%
%ADD112R,0.734059X0.066800*%
%ADD113R,1.198881X0.066550*%
%ADD114R,0.734059X0.066550*%
%ADD115R,1.201419X0.066550*%
%ADD116R,0.932181X0.066800*%
%ADD117R,1.132841X0.066800*%
%ADD118R,0.668019X0.066800*%
%ADD119R,0.668019X0.066550*%
%ADD120R,0.668019X0.066547*%
%ADD121R,0.866141X0.066803*%
%ADD122R,0.932181X0.066547*%
%ADD123R,1.000759X0.066547*%
%ADD124R,0.998222X0.066803*%
%ADD125R,1.135378X0.066803*%
%ADD126R,0.198122X0.066547*%
%ADD127R,0.198119X0.066803*%
%ADD128R,0.398778X0.066803*%
%ADD129R,0.066041X0.066803*%
%ADD130R,0.665478X0.066547*%
%ADD131R,0.066041X0.066547*%
%ADD132R,0.200663X0.066803*%
%ADD133R,0.200663X0.066547*%
%ADD134R,0.200659X0.066547*%
%ADD135R,0.198119X0.066547*%
%ADD136R,0.731519X0.066547*%
%ADD137R,0.200659X0.066803*%
%ADD138R,1.135378X0.066547*%
%ADD139R,0.601981X0.066803*%
%ADD140R,0.868678X0.066803*%
%ADD141R,1.135378X0.066800*%
%ADD142R,0.266700X0.066800*%
%ADD143R,0.200659X0.066800*%
%ADD144R,0.068581X0.066800*%
%ADD145R,0.731519X0.066550*%
%ADD146R,0.601981X0.066550*%
%ADD147R,0.266700X0.066550*%
%ADD148R,0.134622X0.066550*%
%ADD149R,0.868681X0.066547*%
%ADD150R,1.000759X0.066803*%
%ADD151R,0.134622X0.066803*%
%ADD152R,0.335281X0.066803*%
%ADD153R,0.068581X0.066547*%
%ADD154R,0.335281X0.066547*%
%ADD155R,1.064259X0.066547*%
%ADD156R,0.868681X0.066803*%
%ADD157R,0.868678X0.066547*%
%ADD158R,0.530859X0.066550*%
%ADD159R,1.064259X0.066800*%
%ADD160R,0.665478X0.066550*%
%ADD161R,0.668022X0.066550*%
%ADD162R,0.731519X0.066800*%
%ADD163R,0.866141X0.066800*%
%ADD164R,0.200663X0.066800*%
%ADD165R,0.200663X0.066550*%
%ADD166R,0.335281X0.066800*%
%ADD167R,0.335281X0.066550*%
%ADD168R,0.198119X0.066800*%
%ADD169R,0.200659X0.066550*%
%ADD170R,0.264159X0.066547*%
%ADD171R,0.264159X0.066803*%
%ADD172R,0.134619X0.066547*%
%ADD173R,0.599438X0.066803*%
%ADD174R,0.668019X0.066803*%
%ADD175R,0.934719X0.066550*%
%ADD176R,1.000759X0.066800*%
%ADD177R,0.401322X0.066800*%
%ADD178R,0.132081X0.066800*%
%ADD179R,0.335278X0.066803*%
%ADD180R,0.599438X0.066547*%
%ADD181R,0.068578X0.066547*%
%ADD182R,0.734063X0.066547*%
%ADD183R,1.132838X0.066547*%
%ADD184R,1.198878X0.066803*%
%ADD185R,1.198878X0.066547*%
%ADD186R,1.998978X0.066547*%
%ADD187R,1.998978X0.066803*%
%ADD188R,0.601981X0.066800*%
%ADD189R,1.066800X0.066550*%
%ADD190R,1.600200X0.066547*%
%ADD191R,1.600200X0.066803*%
%ADD192R,0.665478X0.066803*%
%ADD193R,0.998219X0.066803*%
%ADD194R,1.132838X0.066803*%
%ADD195R,1.333500X0.066803*%
%ADD196R,0.998222X0.066547*%
%ADD197R,0.932181X0.066803*%
%ADD198R,0.731519X0.066803*%
%ADD199R,0.132081X0.066803*%
%ADD200R,0.401322X0.066550*%
%ADD201R,0.731522X0.066550*%
%ADD202R,0.601978X0.066800*%
%ADD203R,0.464819X0.066800*%
%ADD204R,0.665478X0.066800*%
%ADD205R,0.668022X0.066800*%
%ADD206R,1.132838X0.066550*%
%ADD207R,1.201422X0.066550*%
%ADD208R,0.198119X0.066550*%
%ADD209R,0.734063X0.066550*%
%ADD210R,1.264919X0.066547*%
%ADD211R,1.264919X0.066803*%
%ADD212R,0.132078X0.066547*%
%ADD213R,0.934722X0.066547*%
%ADD214R,1.000762X0.066550*%
%ADD215R,0.998219X0.066550*%
%ADD216R,1.267459X0.066550*%
%ADD217R,0.068581X0.066550*%
%ADD218R,1.267463X0.066547*%
%ADD219R,1.267463X0.066803*%
%ADD220R,1.135381X0.066547*%
%ADD221R,1.000762X0.066800*%
%ADD222R,1.135381X0.066800*%
%ADD223R,1.135381X0.066550*%
%ADD224R,0.934722X0.066550*%
%ADD225R,1.468119X0.066547*%
%ADD226R,0.134619X0.066803*%
%ADD227R,1.468119X0.066803*%
%ADD228R,1.330959X0.066803*%
%ADD229R,1.330959X0.066547*%
%ADD230R,1.135378X0.066550*%
%ADD231R,0.866138X0.066550*%
%ADD232R,0.467363X0.066550*%
%ADD233R,0.134619X0.066550*%
%ADD234R,0.599438X0.066550*%
%ADD235R,0.665481X0.066800*%
%ADD236R,0.665481X0.066550*%
%ADD237R,0.467363X0.066800*%
%ADD238R,0.868681X0.066800*%
%ADD239R,1.333500X0.066547*%
%ADD240R,0.464822X0.066550*%
%ADD241R,1.333500X0.066800*%
%ADD242R,1.198881X0.066800*%
%ADD243R,1.132841X0.066550*%
%ADD244C,0.127000*%


D10*
X340665Y15333D03*
D11*
X231331Y15999D03*
D12*
X340995Y15999D03*
D13*
X231661Y16666D03*
D14*
X340995Y16666D03*
D15*
X231673Y17333D03*
D16*
X340665Y17333D03*
D17*
X231331Y18000D03*
D18*
X340004Y18000D03*
D16*
X230657Y18666D03*
D19*
X336664Y18666D03*
D20*
X344335Y18666D03*
D21*
X227330Y19333D03*
D22*
X234988Y19333D03*
D23*
X336334Y19333D03*
D24*
X344665Y19333D03*
D25*
X227000Y20000D03*
D26*
X235331Y20000D03*
D27*
X336334Y20000D03*
D28*
X227000Y20667D03*
D23*
X336334Y20667D03*
D25*
X227000Y21333D03*
D19*
X336664Y21333D03*
D21*
X227330Y22000D03*
D29*
X337007Y22000D03*
D30*
X227660Y22667D03*
D31*
X337998Y22667D03*
D32*
X228664Y23334D03*
D33*
X339001Y23334D03*
D34*
X229654Y24000D03*
D35*
X339992Y24000D03*
D36*
X230670Y24666D03*
D37*
X340665Y24666D03*
D38*
X231331Y25333D03*
D39*
X341668Y25333D03*
D40*
X232321Y25999D03*
D41*
X342671Y25999D03*
D42*
X233324Y26666D03*
D43*
X343332Y26666D03*
D44*
X233998Y27333D03*
D45*
X343662Y27333D03*
D46*
X234328Y28000D03*
D47*
X343662Y28000D03*
D48*
X234328Y28666D03*
D45*
X343662Y28666D03*
D46*
X234328Y29333D03*
D49*
X336995Y29333D03*
D43*
X343332Y29333D03*
D50*
X227660Y30000D03*
D44*
X233998Y30000D03*
D51*
X340665Y30000D03*
D52*
X231331Y30667D03*
D53*
X340335Y30667D03*
D54*
X231000Y31333D03*
D55*
X339662Y31333D03*
D56*
X230327Y32000D03*
D39*
X339662Y32000D03*
D40*
X230340Y32667D03*
D57*
X339674Y32667D03*
D58*
X230327Y33334D03*
D20*
X340322Y41333D03*
D22*
X231000Y42000D03*
X340322Y42000D03*
D20*
X231000Y42667D03*
X340322Y42667D03*
D22*
X231000Y43334D03*
X340322Y43334D03*
D20*
X231000Y44000D03*
X340322Y44000D03*
X231000Y44666D03*
X340322Y44666D03*
D22*
X231000Y45333D03*
X340322Y45333D03*
D20*
X231000Y45999D03*
D59*
X340335Y45999D03*
D60*
X231000Y46666D03*
D61*
X340335Y46666D03*
D62*
X231000Y47333D03*
D59*
X340335Y47333D03*
D60*
X231000Y48000D03*
D61*
X340335Y48000D03*
D62*
X231000Y48666D03*
D20*
X340322Y48666D03*
D22*
X231000Y49333D03*
X340322Y49333D03*
D20*
X231000Y50000D03*
X340322Y50000D03*
D22*
X231000Y50667D03*
X340322Y50667D03*
D20*
X231000Y51333D03*
X340322Y51333D03*
D22*
X231000Y52000D03*
X340322Y52000D03*
D20*
X231000Y52667D03*
X340322Y52667D03*
D22*
X231000Y53334D03*
X340322Y53334D03*
D20*
X231000Y54000D03*
D63*
X340335Y67333D03*
D64*
X231000Y68000D03*
D65*
X340335Y68000D03*
D66*
X231000Y68666D03*
D63*
X340335Y68666D03*
D64*
X231000Y69333D03*
D65*
X340335Y69333D03*
D66*
X231000Y70000D03*
D63*
X340335Y70000D03*
D64*
X231000Y70667D03*
D67*
X180658Y75999D03*
D68*
X431330Y75999D03*
D69*
X180658Y76666D03*
D70*
X431330Y76666D03*
D67*
X180658Y77333D03*
D68*
X431330Y77333D03*
D69*
X180658Y78000D03*
D70*
X431330Y78000D03*
D40*
X135674Y78666D03*
D67*
X180658Y78666D03*
D40*
X386321Y78666D03*
D68*
X431330Y78666D03*
D39*
X135674Y79333D03*
D69*
X180658Y79333D03*
D39*
X386321Y79333D03*
D70*
X431330Y79333D03*
D40*
X135674Y80000D03*
D67*
X180658Y80000D03*
D40*
X386321Y80000D03*
D68*
X431330Y80000D03*
D39*
X135674Y80667D03*
D69*
X180658Y80667D03*
D39*
X386321Y80667D03*
D70*
X431330Y80667D03*
D40*
X135674Y81333D03*
D67*
X180658Y81333D03*
D40*
X386321Y81333D03*
D68*
X431330Y81333D03*
D39*
X135674Y82000D03*
D71*
X180670Y82000D03*
D39*
X386321Y82000D03*
D72*
X431330Y82000D03*
D73*
X180670Y82667D03*
D74*
X431330Y82667D03*
D71*
X180670Y83334D03*
D72*
X431330Y83334D03*
D73*
X180670Y84000D03*
D74*
X431330Y84000D03*
D75*
X180670Y84666D03*
D76*
X431330Y84666D03*
D77*
X180658Y85333D03*
D78*
X431330Y85333D03*
D79*
X180658Y85999D03*
D80*
X340335Y85999D03*
D81*
X431330Y85999D03*
D77*
X180658Y86666D03*
D21*
X224663Y86666D03*
D82*
X237338Y86666D03*
D83*
X340335Y86666D03*
D78*
X431330Y86666D03*
D79*
X180658Y87333D03*
D30*
X224993Y87333D03*
D84*
X236665Y87333D03*
D80*
X340335Y87333D03*
D81*
X431330Y87333D03*
D77*
X180658Y88000D03*
D85*
X225336Y88000D03*
X236665Y88000D03*
D83*
X340335Y88000D03*
D78*
X431330Y88000D03*
D79*
X180658Y88666D03*
D84*
X225997Y88666D03*
D86*
X235991Y88666D03*
D80*
X340335Y88666D03*
D81*
X431330Y88666D03*
D77*
X180658Y89333D03*
D85*
X225997Y89333D03*
D21*
X235331Y89333D03*
D83*
X340335Y89333D03*
D78*
X431330Y89333D03*
D79*
X180658Y90000D03*
D86*
X226670Y90000D03*
D87*
X235331Y90000D03*
D80*
X340335Y90000D03*
D81*
X431330Y90000D03*
D77*
X180658Y90667D03*
D21*
X227330Y90667D03*
D82*
X234671Y90667D03*
D83*
X340335Y90667D03*
D78*
X431330Y90667D03*
D79*
X180658Y91333D03*
D25*
X227660Y91333D03*
D84*
X233998Y91333D03*
D80*
X340335Y91333D03*
D81*
X431330Y91333D03*
D82*
X227990Y92000D03*
X233324Y92000D03*
D83*
X340335Y92000D03*
D88*
X231000Y92667D03*
D80*
X340335Y92667D03*
D33*
X231000Y93334D03*
D83*
X340335Y93334D03*
D89*
X230670Y94000D03*
D80*
X340335Y94000D03*
D90*
X230657Y94666D03*
D80*
X340335Y94666D03*
D10*
X148006Y95333D03*
D23*
X168339Y95333D03*
D29*
X230988Y95333D03*
X340335Y95333D03*
D83*
X397662Y95333D03*
X421665Y95333D03*
D35*
X147993Y95999D03*
D27*
X168339Y95999D03*
D86*
X230657Y95999D03*
D63*
X340335Y95999D03*
D80*
X397662Y95999D03*
X421665Y95999D03*
D14*
X147676Y96666D03*
D23*
X168339Y96666D03*
D10*
X230657Y96666D03*
D65*
X340335Y96666D03*
D83*
X397662Y96666D03*
X421665Y96666D03*
D91*
X147663Y97333D03*
D27*
X168339Y97333D03*
D66*
X231000Y97333D03*
D34*
X340322Y97333D03*
D80*
X397662Y97333D03*
X421665Y97333D03*
D92*
X147993Y98000D03*
D23*
X168339Y98000D03*
D93*
X230670Y98000D03*
D94*
X340335Y98000D03*
D83*
X397662Y98000D03*
X421665Y98000D03*
D30*
X143662Y98666D03*
D86*
X151994Y98666D03*
D27*
X168339Y98666D03*
D35*
X230670Y98666D03*
D86*
X337337Y98666D03*
X343332Y98666D03*
D80*
X397662Y98666D03*
X421665Y98666D03*
D82*
X143332Y99333D03*
D23*
X152337Y99333D03*
X168339Y99333D03*
D13*
X231000Y99333D03*
D82*
X337337Y99333D03*
X343332Y99333D03*
D95*
X401333Y99333D03*
D83*
X421665Y99333D03*
D80*
X143002Y100000D03*
D19*
X152667Y100000D03*
D27*
X168339Y100000D03*
D86*
X227990Y100000D03*
D96*
X233667Y100000D03*
D19*
X336664Y100000D03*
D86*
X343992Y100000D03*
D97*
X401333Y100000D03*
D80*
X421665Y100000D03*
D83*
X143002Y100667D03*
D98*
X152667Y100667D03*
D23*
X168339Y100667D03*
D21*
X227330Y100667D03*
D85*
X233998Y100667D03*
D82*
X335991Y100667D03*
D98*
X344665Y100667D03*
D95*
X401333Y100667D03*
D83*
X421665Y100667D03*
D80*
X143002Y101333D03*
D27*
X168339Y101333D03*
D87*
X227330Y101333D03*
D86*
X234671Y101333D03*
X335991Y101333D03*
D19*
X344665Y101333D03*
D97*
X401333Y101333D03*
D80*
X421665Y101333D03*
D83*
X143002Y102000D03*
D14*
X164998Y102000D03*
D82*
X226670Y102000D03*
X234671Y102000D03*
X335331Y102000D03*
X345338Y102000D03*
D99*
X401003Y102000D03*
D14*
X418338Y102000D03*
D86*
X143332Y102667D03*
D16*
X164668Y102667D03*
D84*
X225997Y102667D03*
D87*
X235331Y102667D03*
D86*
X334670Y102667D03*
X345999Y102667D03*
D80*
X397662Y102667D03*
D27*
X406337Y102667D03*
D16*
X418008Y102667D03*
D82*
X143993Y103334D03*
D61*
X164338Y103334D03*
D100*
X225666Y103334D03*
D29*
X235661Y103334D03*
D83*
X397662Y103334D03*
D78*
X406006Y103334D03*
D101*
X417665Y103334D03*
D90*
X145339Y104000D03*
D102*
X163995Y104000D03*
D80*
X397662Y104000D03*
D103*
X405333Y104000D03*
D102*
X417335Y104000D03*
D104*
X145999Y104666D03*
D105*
X163665Y104666D03*
D45*
X397662Y104666D03*
D106*
X405333Y104666D03*
D105*
X417005Y104666D03*
D43*
X145999Y105333D03*
X159334Y105333D03*
D107*
X168339Y105333D03*
D47*
X397662Y105333D03*
D70*
X404660Y105333D03*
D43*
X412674Y105333D03*
D47*
X421665Y105333D03*
D104*
X145339Y105999D03*
X159334Y105999D03*
D108*
X168339Y105999D03*
D45*
X397662Y105999D03*
D108*
X404330Y105999D03*
D104*
X412674Y105999D03*
D45*
X421665Y105999D03*
D107*
X144336Y106666D03*
D47*
X159004Y106666D03*
D107*
X168339Y106666D03*
D47*
X397662Y106666D03*
D70*
X404000Y106666D03*
D107*
X412331Y106666D03*
D47*
X421665Y106666D03*
D68*
X144005Y107333D03*
D45*
X159004Y107333D03*
D108*
X168339Y107333D03*
D45*
X397662Y107333D03*
D68*
X403339Y107333D03*
D108*
X412331Y107333D03*
D45*
X421665Y107333D03*
D47*
X143662Y108000D03*
X159004Y108000D03*
D107*
X168339Y108000D03*
D47*
X397662Y108000D03*
D70*
X403339Y108000D03*
D107*
X412331Y108000D03*
D47*
X421665Y108000D03*
D45*
X143662Y108666D03*
D68*
X152006Y108666D03*
D104*
X159334Y108666D03*
D108*
X168339Y108666D03*
D45*
X397662Y108666D03*
D106*
X402666Y108666D03*
D104*
X412674Y108666D03*
D45*
X421665Y108666D03*
D43*
X143993Y109333D03*
D47*
X151663Y109333D03*
D58*
X159664Y109333D03*
D107*
X168339Y109333D03*
D47*
X397662Y109333D03*
D109*
X402666Y109333D03*
D58*
X413004Y109333D03*
D47*
X421665Y109333D03*
D108*
X144336Y110000D03*
D104*
X151333Y110000D03*
D105*
X163665Y110000D03*
D40*
X399656Y110000D03*
D105*
X417005Y110000D03*
D110*
X147676Y110667D03*
D111*
X163995Y110667D03*
D112*
X399326Y110667D03*
D111*
X417335Y110667D03*
D51*
X148006Y111333D03*
D113*
X164338Y111333D03*
D114*
X399326Y111333D03*
D115*
X417665Y111333D03*
D116*
X147663Y112000D03*
D117*
X164668Y112000D03*
D118*
X398996Y112000D03*
D117*
X418008Y112000D03*
D119*
X147663Y112667D03*
D51*
X165329Y112667D03*
D119*
X398996Y112667D03*
D51*
X418668Y112667D03*
D107*
X147663Y113334D03*
D90*
X324002Y114666D03*
D120*
X341668Y114666D03*
D121*
X323990Y115333D03*
D94*
X340335Y115333D03*
D122*
X323660Y115999D03*
D123*
X340004Y115999D03*
D124*
X323329Y116666D03*
D125*
X339331Y116666D03*
D27*
X320332Y117333D03*
D126*
X327330Y117333D03*
D91*
X339001Y117333D03*
D127*
X240665Y118000D03*
D82*
X253340Y118000D03*
D128*
X319672Y118000D03*
D129*
X327990Y118000D03*
D82*
X335331Y118000D03*
D83*
X343002Y118000D03*
D20*
X241008Y118666D03*
D130*
X253670Y118666D03*
D96*
X319672Y118666D03*
D27*
X334328Y118666D03*
D80*
X343002Y118666D03*
D22*
X241008Y119333D03*
D93*
X253327Y119333D03*
D77*
X319342Y119333D03*
D78*
X333997Y119333D03*
D83*
X343002Y119333D03*
D25*
X240995Y120000D03*
D81*
X250660Y120000D03*
D131*
X256007Y120000D03*
D79*
X319342Y120000D03*
D27*
X333667Y120000D03*
D80*
X343002Y120000D03*
D28*
X240995Y120667D03*
D22*
X250330Y120667D03*
D128*
X319672Y120667D03*
D23*
X333667Y120667D03*
D83*
X343002Y120667D03*
D30*
X240995Y121333D03*
D20*
X249669Y121333D03*
D96*
X319672Y121333D03*
D81*
X333337Y121333D03*
D80*
X343002Y121333D03*
D29*
X240995Y122000D03*
D132*
X250000Y122000D03*
D23*
X320332Y122000D03*
D78*
X333337Y122000D03*
D83*
X343002Y122000D03*
D133*
X239332Y122667D03*
D134*
X242659Y122667D03*
D20*
X250330Y122667D03*
D122*
X322999Y122667D03*
D81*
X333337Y122667D03*
D80*
X343002Y122667D03*
D22*
X239001Y123334D03*
X242989Y123334D03*
D78*
X250660Y123334D03*
D121*
X323329Y123334D03*
D78*
X333337Y123334D03*
D83*
X343002Y123334D03*
D134*
X238671Y124000D03*
D135*
X243332Y124000D03*
D11*
X252667Y124000D03*
D136*
X324002Y124000D03*
D27*
X333667Y124000D03*
D80*
X343002Y124000D03*
D20*
X238341Y124666D03*
X243675Y124666D03*
D30*
X253009Y124666D03*
X324333Y124666D03*
D27*
X333667Y124666D03*
D80*
X343002Y124666D03*
D22*
X238341Y125332D03*
X243675Y125332D03*
D28*
X253670Y125332D03*
D22*
X325666Y125332D03*
D23*
X334328Y125332D03*
D83*
X343002Y125332D03*
D20*
X237655Y125999D03*
X244335Y125999D03*
D134*
X254673Y125999D03*
D20*
X325666Y125999D03*
D86*
X334670Y125999D03*
D80*
X343002Y125999D03*
D22*
X237655Y126666D03*
X244335Y126666D03*
D137*
X254673Y126666D03*
D22*
X325666Y126666D03*
D82*
X335331Y126666D03*
D83*
X343002Y126666D03*
D134*
X237325Y127333D03*
D20*
X244335Y127333D03*
D11*
X252667Y127333D03*
D35*
X322669Y127333D03*
D138*
X339331Y127333D03*
D22*
X236995Y127999D03*
X244996Y127999D03*
D139*
X252667Y127999D03*
D121*
X322669Y127999D03*
D14*
X339674Y127999D03*
D20*
X236995Y128666D03*
X244996Y128666D03*
D30*
X252324Y128666D03*
D34*
X322339Y128666D03*
D123*
X340004Y128666D03*
D33*
X322339Y129333D03*
D140*
X340665Y129333D03*
D68*
X326657Y140000D03*
D119*
X341668Y140000D03*
D107*
X326327Y140666D03*
D53*
X340335Y140666D03*
D108*
X325666Y141333D03*
D51*
X340004Y141333D03*
D107*
X325666Y142000D03*
D141*
X339331Y142000D03*
D48*
X325006Y142667D03*
D115*
X339001Y142667D03*
D43*
X218669Y143333D03*
D46*
X231000Y143333D03*
D142*
X239001Y143333D03*
D143*
X244005Y143333D03*
D144*
X250000Y143333D03*
D142*
X255664Y143333D03*
D69*
X324676Y143333D03*
D43*
X335331Y143333D03*
D47*
X343002Y143333D03*
D145*
X218669Y144000D03*
D146*
X231331Y144000D03*
D147*
X239001Y144000D03*
X244335Y144000D03*
D148*
X249669Y144000D03*
D147*
X255664Y144000D03*
D45*
X324333Y144000D03*
D108*
X334328Y144000D03*
D45*
X343002Y144000D03*
D149*
X218669Y144666D03*
D66*
X231000Y144666D03*
D20*
X239001Y144666D03*
X244335Y144666D03*
D133*
X250000Y144666D03*
D20*
X255664Y144666D03*
D81*
X323990Y144666D03*
X333997Y144666D03*
D80*
X343002Y144666D03*
D150*
X218669Y145332D03*
D22*
X228333Y145332D03*
D151*
X233667Y145332D03*
D22*
X239001Y145332D03*
X244335Y145332D03*
D132*
X250000Y145332D03*
X255334Y145332D03*
D23*
X323660Y145332D03*
X333667Y145332D03*
D83*
X343002Y145332D03*
D81*
X214668Y145999D03*
X222669Y145999D03*
D20*
X228333Y145999D03*
X239001Y145999D03*
X244335Y145999D03*
D79*
X250000Y145999D03*
D133*
X255334Y145999D03*
D27*
X322999Y145999D03*
X333667Y145999D03*
D80*
X343002Y145999D03*
D22*
X214338Y146666D03*
X222999Y146666D03*
X228333Y146666D03*
X239001Y146666D03*
D132*
X244666Y146666D03*
D77*
X250000Y146666D03*
D22*
X255003Y146666D03*
D78*
X322669Y146666D03*
X333337Y146666D03*
D83*
X343002Y146666D03*
D20*
X213678Y147333D03*
X222999Y147333D03*
X228333Y147333D03*
X239001Y147333D03*
D133*
X244666Y147333D03*
D96*
X249669Y147333D03*
D20*
X255003Y147333D03*
D96*
X322339Y147333D03*
D81*
X333337Y147333D03*
D80*
X343002Y147333D03*
D22*
X213678Y147999D03*
X223660Y147999D03*
D128*
X228994Y147999D03*
D22*
X239001Y147999D03*
X244996Y147999D03*
D85*
X250000Y147999D03*
D22*
X255003Y147999D03*
D77*
X322009Y147999D03*
D78*
X333337Y147999D03*
D83*
X343002Y147999D03*
D20*
X213678Y148666D03*
X223660Y148666D03*
D30*
X230327Y148666D03*
D20*
X239001Y148666D03*
X244996Y148666D03*
D135*
X248666Y148666D03*
X251333Y148666D03*
D20*
X255003Y148666D03*
D80*
X321666Y148666D03*
D81*
X333337Y148666D03*
D80*
X343002Y148666D03*
D22*
X213678Y149333D03*
X223660Y149333D03*
D29*
X230988Y149333D03*
D22*
X239001Y149333D03*
X244996Y149333D03*
D137*
X247993Y149333D03*
D22*
X251676Y149333D03*
D137*
X254673Y149333D03*
D152*
X321335Y149333D03*
D23*
X333667Y149333D03*
D83*
X343002Y149333D03*
D20*
X213678Y150000D03*
X223660Y150000D03*
D86*
X232004Y150000D03*
D20*
X239001Y150000D03*
D30*
X246329Y150000D03*
D86*
X253340Y150000D03*
D81*
X320662Y150000D03*
D27*
X333667Y150000D03*
D80*
X343002Y150000D03*
D78*
X214008Y150666D03*
D22*
X222999Y150666D03*
X233007Y150666D03*
X239001Y150666D03*
D82*
X246659Y150666D03*
X253340Y150666D03*
D23*
X320332Y150666D03*
X334328Y150666D03*
D83*
X343002Y150666D03*
D20*
X214338Y151333D03*
D81*
X222669Y151333D03*
D20*
X233007Y151333D03*
X239001Y151333D03*
D25*
X246329Y151333D03*
D86*
X253340Y151333D03*
D81*
X320002Y151333D03*
D86*
X334670Y151333D03*
D80*
X343002Y151333D03*
D128*
X214998Y152000D03*
D78*
X222009Y152000D03*
D22*
X233007Y152000D03*
X239001Y152000D03*
D28*
X246329Y152000D03*
X253670Y152000D03*
D128*
X319672Y152000D03*
D82*
X335331Y152000D03*
D83*
X343002Y152000D03*
D123*
X218669Y152667D03*
D153*
X228664Y152667D03*
D154*
X232664Y152667D03*
D20*
X239001Y152667D03*
D154*
X245999Y152667D03*
D25*
X253670Y152667D03*
D155*
X322999Y152667D03*
D138*
X339331Y152667D03*
D156*
X218669Y153333D03*
D10*
X230657Y153333D03*
D22*
X239001Y153333D03*
D152*
X245999Y153333D03*
D22*
X253657Y153333D03*
D18*
X322656Y153333D03*
D14*
X339674Y153333D03*
D90*
X218669Y154000D03*
D30*
X230327Y154000D03*
D20*
X239001Y154000D03*
D154*
X245999Y154000D03*
D20*
X253657Y154000D03*
D16*
X322656Y154000D03*
D123*
X340004Y154000D03*
D154*
X218669Y154666D03*
D81*
X230670Y154666D03*
D59*
X322326Y154666D03*
D157*
X340665Y154666D03*
D158*
X322999Y164666D03*
D119*
X341668Y164666D03*
D39*
X322999Y165332D03*
D53*
X340335Y165332D03*
D55*
X322999Y165999D03*
D51*
X340004Y165999D03*
D159*
X322999Y166666D03*
D141*
X339331Y166666D03*
D48*
X319672Y167333D03*
D108*
X326327Y167333D03*
D115*
X339001Y167333D03*
D142*
X214338Y167999D03*
D107*
X222339Y167999D03*
D46*
X234328Y167999D03*
D143*
X244005Y167999D03*
D144*
X250000Y167999D03*
D142*
X255664Y167999D03*
D47*
X318999Y167999D03*
X327000Y167999D03*
D43*
X335331Y167999D03*
D47*
X343002Y167999D03*
D147*
X214338Y168666D03*
D160*
X222326Y168666D03*
D161*
X234328Y168666D03*
D147*
X244335Y168666D03*
D148*
X249669Y168666D03*
D147*
X255664Y168666D03*
D45*
X318999Y168666D03*
X327000Y168666D03*
D108*
X334328Y168666D03*
D45*
X343002Y168666D03*
D142*
X214338Y169333D03*
D162*
X221996Y169333D03*
D163*
X234658Y169333D03*
D142*
X244335Y169333D03*
D164*
X250000Y169333D03*
D142*
X255664Y169333D03*
D69*
X319342Y169333D03*
D47*
X327000Y169333D03*
D70*
X333997Y169333D03*
D47*
X343002Y169333D03*
D147*
X214338Y170000D03*
X219672Y170000D03*
D50*
X224333Y170000D03*
D51*
X234671Y170000D03*
D147*
X244335Y170000D03*
D165*
X250000Y170000D03*
X255334Y170000D03*
D67*
X319342Y170000D03*
D68*
X326657Y170000D03*
D108*
X333667Y170000D03*
D45*
X343002Y170000D03*
D142*
X214338Y170666D03*
X219012Y170666D03*
D70*
X230670Y170666D03*
D166*
X237998Y170666D03*
D142*
X244335Y170666D03*
D69*
X250000Y170666D03*
D164*
X255334Y170666D03*
D46*
X319672Y170666D03*
D107*
X326327Y170666D03*
X333667Y170666D03*
D47*
X343002Y170666D03*
D147*
X214338Y171333D03*
X219012Y171333D03*
D167*
X229997Y171333D03*
D68*
X238671Y171333D03*
D165*
X244666Y171333D03*
D67*
X250000Y171333D03*
D147*
X255003Y171333D03*
D55*
X322999Y171333D03*
D68*
X333337Y171333D03*
D45*
X343002Y171333D03*
D142*
X214338Y172000D03*
D70*
X219342Y172000D03*
D142*
X229654Y172000D03*
X239001Y172000D03*
D164*
X244666Y172000D03*
D46*
X249669Y172000D03*
D142*
X255003Y172000D03*
D118*
X322999Y172000D03*
D70*
X333337Y172000D03*
D47*
X343002Y172000D03*
D147*
X214338Y172667D03*
D48*
X220332Y172667D03*
D147*
X229654Y172667D03*
X239001Y172667D03*
X244996Y172667D03*
D44*
X250000Y172667D03*
D147*
X255003Y172667D03*
D158*
X322999Y172667D03*
D68*
X333337Y172667D03*
D45*
X343002Y172667D03*
D142*
X214338Y173333D03*
D58*
X221005Y173333D03*
D142*
X229654Y173333D03*
D69*
X239332Y173333D03*
D142*
X244996Y173333D03*
D168*
X248666Y173333D03*
X251333Y173333D03*
D142*
X255003Y173333D03*
D118*
X322999Y173333D03*
D70*
X333337Y173333D03*
D47*
X343002Y173333D03*
D147*
X214338Y174000D03*
D57*
X222326Y174000D03*
D147*
X229654Y174000D03*
D67*
X239332Y174000D03*
D147*
X244996Y174000D03*
D169*
X247993Y174000D03*
D147*
X251676Y174000D03*
D169*
X254673Y174000D03*
D40*
X322999Y174000D03*
D108*
X333667Y174000D03*
D45*
X343002Y174000D03*
D20*
X214338Y174666D03*
D96*
X222999Y174666D03*
D20*
X229654Y174666D03*
X239001Y174666D03*
D30*
X246329Y174666D03*
D86*
X253340Y174666D03*
D81*
X320002Y174666D03*
X325996Y174666D03*
D27*
X333667Y174666D03*
D80*
X343002Y174666D03*
D22*
X214338Y175332D03*
D78*
X223990Y175332D03*
D22*
X229654Y175332D03*
X239001Y175332D03*
D82*
X246659Y175332D03*
X253340Y175332D03*
D22*
X319672Y175332D03*
D78*
X326657Y175332D03*
D23*
X334328Y175332D03*
D83*
X343002Y175332D03*
D20*
X214338Y175999D03*
D170*
X224333Y175999D03*
D20*
X230340Y175999D03*
D81*
X238671Y175999D03*
D25*
X246329Y175999D03*
D86*
X253340Y175999D03*
D79*
X319342Y175999D03*
D81*
X326657Y175999D03*
D86*
X334670Y175999D03*
D80*
X343002Y175999D03*
D22*
X214338Y176666D03*
D171*
X224333Y176666D03*
D78*
X230670Y176666D03*
D152*
X237998Y176666D03*
D28*
X246329Y176666D03*
X253670Y176666D03*
D77*
X319342Y176666D03*
D78*
X326657Y176666D03*
D82*
X335331Y176666D03*
D83*
X343002Y176666D03*
D20*
X214338Y177333D03*
D172*
X219672Y177333D03*
D20*
X223660Y177333D03*
D88*
X234328Y177333D03*
D154*
X245999Y177333D03*
D25*
X253670Y177333D03*
D20*
X319672Y177333D03*
X326327Y177333D03*
D138*
X339331Y177333D03*
D22*
X214338Y177999D03*
D173*
X221996Y177999D03*
D33*
X234328Y177999D03*
D152*
X245999Y177999D03*
D22*
X253657Y177999D03*
D23*
X320332Y177999D03*
X325666Y177999D03*
D14*
X339674Y177999D03*
D20*
X214338Y178666D03*
D90*
X221336Y178666D03*
D66*
X234328Y178666D03*
D154*
X245999Y178666D03*
D20*
X253657Y178666D03*
D34*
X322999Y178666D03*
D123*
X340004Y178666D03*
D22*
X221679Y179333D03*
D78*
X234658Y179333D03*
D174*
X322999Y179333D03*
D140*
X340665Y179333D03*
D27*
X322999Y180000D03*
D40*
X320993Y190000D03*
D57*
X331673Y190000D03*
X348336Y190000D03*
D39*
X320993Y190666D03*
D112*
X331991Y190666D03*
D39*
X348323Y190666D03*
D40*
X320993Y191333D03*
D37*
X332664Y191333D03*
D175*
X348336Y191333D03*
D39*
X320993Y192000D03*
D53*
X332994Y192000D03*
D176*
X348005Y192000D03*
D40*
X320993Y192667D03*
D51*
X333324Y192667D03*
D108*
X344996Y192667D03*
D147*
X350990Y192667D03*
D70*
X226657Y193333D03*
D142*
X234328Y193333D03*
D177*
X240995Y193333D03*
D46*
X252997Y193333D03*
D70*
X323329Y193333D03*
D49*
X328994Y193333D03*
D43*
X335991Y193333D03*
D107*
X344335Y193333D03*
D178*
X351663Y193333D03*
D167*
X227330Y194000D03*
D147*
X234328Y194000D03*
D41*
X241325Y194000D03*
X253340Y194000D03*
D68*
X323329Y194000D03*
D108*
X336995Y194000D03*
X344335Y194000D03*
D81*
X228003Y194666D03*
D20*
X234328Y194666D03*
D66*
X241668Y194666D03*
X252997Y194666D03*
D81*
X323329Y194666D03*
D86*
X337337Y194666D03*
D27*
X344335Y194666D03*
D22*
X228333Y195332D03*
X234328Y195332D03*
D32*
X241999Y195332D03*
D22*
X250330Y195332D03*
D151*
X255664Y195332D03*
D78*
X323329Y195332D03*
D83*
X337668Y195332D03*
D23*
X344335Y195332D03*
D20*
X228994Y195999D03*
X234328Y195999D03*
D79*
X244666Y195999D03*
D20*
X250330Y195999D03*
D81*
X323329Y195999D03*
D80*
X337668Y195999D03*
D30*
X345008Y195999D03*
D22*
X229654Y196666D03*
X234328Y196666D03*
X244996Y196666D03*
X250330Y196666D03*
D78*
X323329Y196666D03*
D179*
X337998Y196666D03*
D65*
X346329Y196666D03*
D154*
X229997Y197333D03*
D20*
X234328Y197333D03*
X244996Y197333D03*
X250330Y197333D03*
D81*
X323329Y197333D03*
D103*
X337998Y197333D03*
D34*
X347002Y197333D03*
D22*
X230340Y197999D03*
X234328Y197999D03*
X245656Y197999D03*
D28*
X251003Y197999D03*
D78*
X323329Y197999D03*
D179*
X337998Y197999D03*
D33*
X347663Y197999D03*
D180*
X232664Y198666D03*
D20*
X245656Y198666D03*
D30*
X252324Y198666D03*
D81*
X323329Y198666D03*
D103*
X337998Y198666D03*
D31*
X348666Y198666D03*
D173*
X232664Y199333D03*
D22*
X245656Y199333D03*
D29*
X253009Y199333D03*
D78*
X323329Y199333D03*
D83*
X337668Y199333D03*
D29*
X349656Y199333D03*
D20*
X231000Y200000D03*
X234328Y200000D03*
X245656Y200000D03*
D87*
X254000Y200000D03*
D81*
X323329Y200000D03*
D80*
X337668Y200000D03*
D86*
X350672Y200000D03*
D22*
X230340Y200666D03*
X234328Y200666D03*
X244996Y200666D03*
X255003Y200666D03*
D78*
X323329Y200666D03*
D23*
X336995Y200666D03*
D83*
X351003Y200666D03*
D20*
X229654Y201333D03*
X234328Y201333D03*
X244996Y201333D03*
X255003Y201333D03*
D81*
X323329Y201333D03*
D181*
X328663Y201333D03*
D19*
X336664Y201333D03*
D80*
X351003Y201333D03*
D88*
X485000Y201333D03*
D22*
X228994Y202000D03*
X234328Y202000D03*
D129*
X238658Y202000D03*
D78*
X244005Y202000D03*
D22*
X255003Y202000D03*
D78*
X323329Y202000D03*
D137*
X329324Y202000D03*
D29*
X335661Y202000D03*
D78*
X350660Y202000D03*
D14*
X484327Y202000D03*
D20*
X228333Y202667D03*
X234328Y202667D03*
D182*
X241999Y202667D03*
D131*
X250673Y202667D03*
D81*
X254673Y202667D03*
X323329Y202667D03*
D123*
X333324Y202667D03*
D172*
X344996Y202667D03*
D19*
X349999Y202667D03*
D183*
X483997Y202667D03*
D22*
X228333Y203333D03*
X234328Y203333D03*
D64*
X241668Y203333D03*
D139*
X252667Y203333D03*
D78*
X323329Y203333D03*
D94*
X332994Y203333D03*
D121*
X347993Y203333D03*
D184*
X483667Y203333D03*
D20*
X227673Y204000D03*
X234328Y204000D03*
D30*
X240995Y204000D03*
X252324Y204000D03*
D81*
X323329Y204000D03*
D157*
X332664Y204000D03*
D34*
X347663Y204000D03*
D185*
X483667Y204000D03*
D20*
X241008Y204666D03*
D79*
X252667Y204666D03*
D81*
X323329Y204666D03*
D89*
X331991Y204666D03*
X347332Y204666D03*
D102*
X483324Y204666D03*
D82*
X332003Y205332D03*
D98*
X347332Y205332D03*
D28*
X478993Y205332D03*
D154*
X478663Y205999D03*
D152*
X478663Y206666D03*
D20*
X479006Y207333D03*
D22*
X479006Y207999D03*
D134*
X479336Y208666D03*
D132*
X479997Y209333D03*
D186*
X479666Y210000D03*
D187*
X479666Y210666D03*
D186*
X479666Y211333D03*
D187*
X479666Y212000D03*
D186*
X479666Y212667D03*
D187*
X479666Y213333D03*
D188*
X60668Y217999D03*
D142*
X479006Y217999D03*
X487667Y217999D03*
D146*
X60668Y218666D03*
D167*
X478663Y218666D03*
D67*
X487998Y218666D03*
D188*
X60668Y219333D03*
D166*
X478663Y219333D03*
D142*
X488328Y219333D03*
D146*
X60668Y220000D03*
D167*
X478663Y220000D03*
D147*
X488328Y220000D03*
D188*
X60668Y220666D03*
D166*
X478663Y220666D03*
D69*
X487998Y220666D03*
D167*
X478663Y221333D03*
D67*
X487998Y221333D03*
D177*
X478993Y222000D03*
D46*
X487667Y222000D03*
D48*
X479666Y222667D03*
D104*
X487324Y222667D03*
D117*
X483337Y223333D03*
D189*
X483667Y224000D03*
D123*
X483337Y224666D03*
D121*
X483324Y225332D03*
D130*
X483667Y225999D03*
D28*
X483667Y226666D03*
D20*
X479006Y228666D03*
D22*
X479006Y229333D03*
D20*
X479006Y230000D03*
D22*
X479006Y230666D03*
D190*
X481660Y231333D03*
D191*
X481660Y232000D03*
D190*
X481660Y232667D03*
D191*
X481660Y233333D03*
D190*
X481660Y234000D03*
X481660Y234666D03*
D22*
X479006Y235332D03*
D20*
X116345Y235999D03*
D27*
X125006Y235999D03*
D35*
X137325Y235999D03*
D157*
X148666Y235999D03*
D30*
X160325Y235999D03*
D63*
X175006Y235999D03*
D20*
X479006Y235999D03*
D22*
X116345Y236666D03*
D65*
X124993Y236666D03*
D33*
X136995Y236666D03*
X148323Y236666D03*
D93*
X160668Y236666D03*
D121*
X174003Y236666D03*
D20*
X116345Y237333D03*
D34*
X125006Y237333D03*
X136995Y237333D03*
X148323Y237333D03*
D35*
X160668Y237333D03*
D122*
X173673Y237333D03*
D80*
X302997Y237333D03*
D27*
X314998Y237333D03*
D120*
X328333Y237333D03*
D30*
X340335Y237333D03*
D22*
X116345Y237999D03*
D78*
X122009Y237999D03*
D22*
X128334Y237999D03*
D93*
X136665Y237999D03*
X147993Y237999D03*
D23*
X157671Y237999D03*
D78*
X163335Y237999D03*
D150*
X173330Y237999D03*
D192*
X235661Y237999D03*
D128*
X244335Y237999D03*
D78*
X255994Y237999D03*
D29*
X269011Y237999D03*
D77*
X303340Y237999D03*
D78*
X314668Y237999D03*
D94*
X327000Y237999D03*
D140*
X340665Y237999D03*
D20*
X116345Y238666D03*
D81*
X128664Y238666D03*
D20*
X138341Y238666D03*
X149670Y238666D03*
D81*
X157340Y238666D03*
X163995Y238666D03*
D80*
X170332Y238666D03*
D81*
X176670Y238666D03*
D35*
X234658Y238666D03*
D84*
X244666Y238666D03*
D81*
X255994Y238666D03*
D35*
X269329Y238666D03*
D96*
X303670Y238666D03*
D81*
X314668Y238666D03*
D123*
X326669Y238666D03*
X340665Y238666D03*
D22*
X116345Y239333D03*
X128994Y239333D03*
D179*
X137998Y239333D03*
D78*
X149339Y239333D03*
D22*
X157010Y239333D03*
D78*
X163995Y239333D03*
D179*
X170002Y239333D03*
D78*
X176670Y239333D03*
D193*
X233998Y239333D03*
D85*
X244666Y239333D03*
D78*
X255994Y239333D03*
D14*
X269011Y239333D03*
D78*
X304000Y239333D03*
D128*
X314338Y239333D03*
D194*
X326009Y239333D03*
D150*
X340004Y239333D03*
D132*
X471996Y239333D03*
D184*
X483667Y239333D03*
D20*
X116345Y240000D03*
X128994Y240000D03*
X137655Y240000D03*
X149009Y240000D03*
X157010Y240000D03*
D81*
X163995Y240000D03*
D103*
X170002Y240000D03*
D81*
X176670Y240000D03*
D15*
X233655Y240000D03*
D30*
X245008Y240000D03*
D81*
X255994Y240000D03*
D62*
X268999Y240000D03*
D81*
X304000Y240000D03*
D79*
X314008Y240000D03*
D91*
X325666Y240000D03*
D27*
X336995Y240000D03*
D126*
X343332Y240000D03*
D79*
X471996Y240000D03*
D185*
X483667Y240000D03*
D22*
X116345Y240666D03*
D124*
X125336Y240666D03*
D22*
X136995Y240666D03*
X148323Y240666D03*
X157010Y240666D03*
D78*
X163995Y240666D03*
D179*
X170002Y240666D03*
D78*
X176670Y240666D03*
D18*
X233324Y240666D03*
D10*
X245339Y240666D03*
D78*
X255994Y240666D03*
D29*
X264998Y240666D03*
X272999Y240666D03*
D195*
X309004Y240666D03*
D82*
X321996Y240666D03*
D83*
X329667Y240666D03*
D23*
X336334Y240666D03*
D129*
X343992Y240666D03*
D83*
X472338Y240666D03*
D184*
X483667Y240666D03*
D103*
X116002Y241333D03*
D196*
X125336Y241333D03*
D81*
X136665Y241333D03*
X147993Y241333D03*
D20*
X157010Y241333D03*
D81*
X163995Y241333D03*
D103*
X170002Y241333D03*
D81*
X176670Y241333D03*
D86*
X229337Y241333D03*
D96*
X236995Y241333D03*
D130*
X245669Y241333D03*
D81*
X255994Y241333D03*
D25*
X264338Y241333D03*
D96*
X273672Y241333D03*
D102*
X309334Y241333D03*
D25*
X321005Y241333D03*
D80*
X329667Y241333D03*
D27*
X336334Y241333D03*
D80*
X472338Y241333D03*
D185*
X483667Y241333D03*
D179*
X116002Y242000D03*
D22*
X121679Y242000D03*
D78*
X128664Y242000D03*
D22*
X136335Y242000D03*
X147663Y242000D03*
X157010Y242000D03*
D78*
X163995Y242000D03*
D197*
X173673Y242000D03*
D85*
X228664Y242000D03*
D128*
X236995Y242000D03*
D198*
X245999Y242000D03*
D78*
X255994Y242000D03*
D128*
X263665Y242000D03*
X274333Y242000D03*
D60*
X309004Y242000D03*
D78*
X320662Y242000D03*
D83*
X329667Y242000D03*
D23*
X336334Y242000D03*
D83*
X472338Y242000D03*
D184*
X483667Y242000D03*
D80*
X115672Y242667D03*
D20*
X121679Y242667D03*
X128334Y242667D03*
D81*
X136004Y242667D03*
X147333Y242667D03*
D20*
X157010Y242667D03*
D81*
X163995Y242667D03*
D35*
X174003Y242667D03*
D96*
X228333Y242667D03*
X236995Y242667D03*
D136*
X245999Y242667D03*
D81*
X255994Y242667D03*
D96*
X263665Y242667D03*
D81*
X274663Y242667D03*
D25*
X305003Y242667D03*
X313004Y242667D03*
D27*
X320332Y242667D03*
D80*
X329667Y242667D03*
D27*
X336334Y242667D03*
D79*
X471996Y242667D03*
D185*
X483667Y242667D03*
D174*
X114338Y243333D03*
D22*
X122339Y243333D03*
X128334Y243333D03*
D33*
X137655Y243333D03*
X149009Y243333D03*
D22*
X157010Y243333D03*
D78*
X163995Y243333D03*
D93*
X174663Y243333D03*
D28*
X227660Y243333D03*
D128*
X236995Y243333D03*
D33*
X246342Y243333D03*
D78*
X255994Y243333D03*
D128*
X263665Y243333D03*
D23*
X274993Y243333D03*
D152*
X305333Y243333D03*
D78*
X312661Y243333D03*
D23*
X320332Y243333D03*
D83*
X329667Y243333D03*
D82*
X337337Y243333D03*
D199*
X472338Y243333D03*
D81*
X112662Y244000D03*
D20*
X116345Y244000D03*
D89*
X125336Y244000D03*
D34*
X137655Y244000D03*
X149009Y244000D03*
D20*
X157010Y244000D03*
D81*
X163995Y244000D03*
D34*
X174333Y244000D03*
D25*
X227660Y244000D03*
D96*
X236995Y244000D03*
X244335Y244000D03*
D25*
X248996Y244000D03*
D81*
X255994Y244000D03*
D34*
X265011Y244000D03*
D27*
X274993Y244000D03*
D154*
X305333Y244000D03*
D81*
X312661Y244000D03*
X320002Y244000D03*
D80*
X329667Y244000D03*
D63*
X338328Y244000D03*
D147*
X112332Y244666D03*
X116345Y244666D03*
D41*
X125324Y244666D03*
D36*
X137325Y244666D03*
D37*
X148666Y244666D03*
D147*
X157010Y244666D03*
D68*
X163995Y244666D03*
X171336Y244666D03*
X176670Y244666D03*
D200*
X227660Y244666D03*
D48*
X236995Y244666D03*
X244335Y244666D03*
X249669Y244666D03*
D68*
X255994Y244666D03*
D40*
X265011Y244666D03*
D108*
X274993Y244666D03*
D67*
X306007Y244666D03*
D108*
X312331Y244666D03*
D68*
X320002Y244666D03*
D45*
X329667Y244666D03*
D114*
X339331Y244666D03*
D49*
X111671Y245332D03*
D70*
X125336Y245332D03*
D142*
X171006Y245332D03*
D70*
X176670Y245332D03*
D177*
X227660Y245332D03*
D46*
X236995Y245332D03*
X244335Y245332D03*
X250330Y245332D03*
D70*
X255994Y245332D03*
D39*
X265011Y245332D03*
D107*
X274993Y245332D03*
D69*
X306007Y245332D03*
D70*
X312001Y245332D03*
X320002Y245332D03*
D47*
X329667Y245332D03*
D112*
X339992Y245332D03*
D147*
X171006Y245999D03*
D68*
X176670Y245999D03*
D200*
X227660Y245999D03*
D48*
X236995Y245999D03*
X244335Y245999D03*
X250330Y245999D03*
D68*
X255994Y245999D03*
D40*
X265011Y245999D03*
D108*
X274993Y245999D03*
D67*
X306007Y245999D03*
D68*
X312001Y245999D03*
X320002Y245999D03*
D45*
X329667Y245999D03*
D201*
X340665Y245999D03*
D50*
X478333Y245999D03*
D142*
X171006Y246666D03*
D70*
X176670Y246666D03*
D177*
X227660Y246666D03*
D46*
X236995Y246666D03*
X244335Y246666D03*
D177*
X251003Y246666D03*
D70*
X255994Y246666D03*
D107*
X274993Y246666D03*
D70*
X306667Y246666D03*
D69*
X311341Y246666D03*
D107*
X320332Y246666D03*
D47*
X329667Y246666D03*
D202*
X341998Y246666D03*
D142*
X479006Y246666D03*
D68*
X171336Y247333D03*
X176670Y247333D03*
D200*
X227660Y247333D03*
D48*
X236995Y247333D03*
X244335Y247333D03*
D200*
X251663Y247333D03*
D68*
X255994Y247333D03*
D108*
X274993Y247333D03*
D68*
X306667Y247333D03*
D67*
X311341Y247333D03*
D108*
X320332Y247333D03*
D45*
X329667Y247333D03*
X343002Y247333D03*
D48*
X479666Y247333D03*
D163*
X174003Y247999D03*
D70*
X228003Y247999D03*
D46*
X236995Y247999D03*
X244335Y247999D03*
D162*
X254000Y247999D03*
D107*
X274993Y247999D03*
D70*
X307327Y247999D03*
D69*
X311341Y247999D03*
D177*
X321005Y247999D03*
D47*
X329667Y247999D03*
X343002Y247999D03*
D58*
X480339Y247999D03*
D40*
X174333Y248666D03*
D48*
X228333Y248666D03*
X236995Y248666D03*
X244335Y248666D03*
D160*
X254330Y248666D03*
D50*
X264998Y248666D03*
D48*
X274333Y248666D03*
D161*
X309004Y248666D03*
D104*
X321335Y248666D03*
D45*
X329667Y248666D03*
X343002Y248666D03*
D160*
X481000Y248666D03*
D112*
X174663Y249333D03*
D203*
X228664Y249333D03*
D46*
X236995Y249333D03*
X244335Y249333D03*
D204*
X254330Y249333D03*
D142*
X264325Y249333D03*
D46*
X274333Y249333D03*
D205*
X309004Y249333D03*
D43*
X321996Y249333D03*
D47*
X329667Y249333D03*
X343002Y249333D03*
D39*
X481673Y249333D03*
D57*
X229667Y250000D03*
D48*
X236995Y250000D03*
X244335Y250000D03*
D41*
X254660Y250000D03*
D200*
X264338Y250000D03*
D48*
X273672Y250000D03*
D146*
X309334Y250000D03*
D206*
X326009Y250000D03*
D169*
X337325Y250000D03*
D108*
X342329Y250000D03*
D40*
X482994Y250000D03*
D117*
X233324Y250666D03*
D46*
X244335Y250666D03*
D58*
X254991Y250666D03*
D111*
X269329Y250666D03*
D58*
X308991Y250666D03*
D110*
X326339Y250666D03*
D163*
X339992Y250666D03*
D39*
X484340Y250666D03*
D189*
X233655Y251333D03*
D48*
X244335Y251333D03*
D44*
X255334Y251333D03*
D207*
X268999Y251333D03*
D57*
X308991Y251333D03*
D51*
X326669Y251333D03*
D40*
X339662Y251333D03*
X485661Y251333D03*
D52*
X233998Y252000D03*
D46*
X244335Y252000D03*
D203*
X255334Y252000D03*
D110*
X269011Y252000D03*
D46*
X309004Y252000D03*
D38*
X327343Y252000D03*
D112*
X339331Y252000D03*
D204*
X486334Y252000D03*
D36*
X234658Y252667D03*
D48*
X244335Y252667D03*
X255664Y252667D03*
D40*
X268999Y252667D03*
D108*
X339662Y252667D03*
D57*
X486994Y252667D03*
D168*
X62001Y253333D03*
D58*
X269011Y253333D03*
D204*
X486334Y253333D03*
D208*
X62001Y254000D03*
D209*
X485331Y254000D03*
D135*
X62001Y254665D03*
D136*
X483997Y254665D03*
D127*
X62001Y255332D03*
D32*
X482664Y255332D03*
D135*
X62001Y255999D03*
D130*
X481000Y255999D03*
D127*
X62001Y256666D03*
D29*
X480339Y256666D03*
D135*
X62001Y257332D03*
D84*
X479997Y257332D03*
D127*
X62001Y257999D03*
D10*
X480670Y257999D03*
D210*
X62001Y258666D03*
D130*
X481660Y258666D03*
D211*
X62001Y259333D03*
D93*
X483324Y259333D03*
D210*
X62001Y259999D03*
D89*
X484670Y259999D03*
D211*
X62001Y260666D03*
D93*
X485991Y260666D03*
D135*
X62001Y261333D03*
D180*
X486664Y261333D03*
D127*
X62001Y262000D03*
D173*
X486664Y262000D03*
D135*
X62001Y262666D03*
D89*
X485991Y262666D03*
D127*
X62001Y263333D03*
D33*
X485000Y263333D03*
D135*
X62001Y264000D03*
D34*
X483654Y264000D03*
D135*
X62001Y264665D03*
D34*
X482333Y264665D03*
D127*
X62001Y265332D03*
D198*
X481330Y265332D03*
D90*
X480670Y265999D03*
D85*
X479997Y266666D03*
D81*
X479336Y267332D03*
D127*
X478663Y267999D03*
D131*
X478003Y268666D03*
D20*
X483654Y271333D03*
D173*
X483997Y272000D03*
D212*
X472999Y272666D03*
D136*
X483997Y272666D03*
D78*
X473342Y273333D03*
D156*
X483997Y273333D03*
D81*
X473342Y274000D03*
D213*
X484327Y274000D03*
D68*
X473342Y274665D03*
D214*
X483997Y274665D03*
D166*
X472669Y275332D03*
D110*
X484327Y275332D03*
D167*
X472669Y275999D03*
D104*
X480670Y275999D03*
D48*
X487667Y275999D03*
D166*
X472669Y276666D03*
D46*
X480327Y276666D03*
D69*
X487998Y276666D03*
D167*
X472669Y277332D03*
D48*
X480327Y277332D03*
D67*
X487998Y277332D03*
D143*
X123330Y277999D03*
D166*
X472669Y277999D03*
D203*
X479997Y277999D03*
D69*
X487998Y277999D03*
D169*
X123330Y278666D03*
D200*
X472999Y278666D03*
D48*
X479666Y278666D03*
D67*
X487998Y278666D03*
D143*
X123330Y279333D03*
D110*
X476326Y279333D03*
D69*
X487998Y279333D03*
D169*
X123330Y279999D03*
D215*
X476669Y279999D03*
D67*
X487998Y279999D03*
D143*
X123330Y280666D03*
D42*
X175336Y280666D03*
D116*
X476339Y280666D03*
D46*
X487667Y280666D03*
D169*
X123330Y281333D03*
D41*
X175336Y281333D03*
D36*
X476669Y281333D03*
D48*
X487667Y281333D03*
D143*
X123330Y282000D03*
D42*
X175336Y282000D03*
D112*
X476669Y282000D03*
D177*
X486994Y282000D03*
D169*
X123330Y282666D03*
D41*
X175336Y282666D03*
X476656Y282666D03*
D200*
X486994Y282666D03*
D111*
X123330Y283333D03*
D42*
X175336Y283333D03*
D70*
X476669Y283333D03*
D143*
X487337Y283333D03*
D216*
X123330Y284000D03*
D217*
X487998Y284000D03*
D102*
X123330Y284665D03*
D92*
X123330Y285332D03*
D134*
X123330Y285999D03*
D137*
X123330Y286666D03*
D134*
X123330Y287332D03*
D137*
X123330Y287999D03*
D134*
X123330Y288666D03*
D137*
X123330Y289333D03*
D134*
X123330Y289999D03*
D128*
X20333Y295332D03*
D83*
X30328Y295332D03*
X38329Y295332D03*
D128*
X44336Y295332D03*
D156*
X62001Y295332D03*
D96*
X20333Y295999D03*
D80*
X30328Y295999D03*
X38329Y295999D03*
D66*
X44336Y295999D03*
D15*
X61011Y295999D03*
D128*
X20333Y296666D03*
D83*
X30328Y296666D03*
D101*
X42329Y296666D03*
D60*
X60338Y296666D03*
D96*
X20333Y297332D03*
D80*
X30328Y297332D03*
D102*
X42659Y297332D03*
D218*
X60008Y297332D03*
D128*
X20333Y297999D03*
D83*
X30328Y297999D03*
D92*
X42659Y297999D03*
D219*
X60008Y297999D03*
D96*
X20333Y298666D03*
D80*
X30328Y298666D03*
D86*
X38659Y298666D03*
D84*
X47333Y298666D03*
D30*
X55677Y298666D03*
D25*
X64338Y298666D03*
D128*
X20333Y299333D03*
D83*
X30328Y299333D03*
X38329Y299333D03*
D23*
X47663Y299333D03*
D85*
X55334Y299333D03*
D28*
X64338Y299333D03*
D96*
X20333Y299999D03*
D80*
X30328Y299999D03*
X38329Y299999D03*
D87*
X48006Y299999D03*
D96*
X55004Y299999D03*
D25*
X64338Y299999D03*
D128*
X20333Y300666D03*
D83*
X30328Y300666D03*
D152*
X37998Y300666D03*
D28*
X48336Y300666D03*
D128*
X55004Y300666D03*
D28*
X64338Y300666D03*
D96*
X20333Y301333D03*
D80*
X30328Y301333D03*
D154*
X37998Y301333D03*
D25*
X48336Y301333D03*
D96*
X55004Y301333D03*
D25*
X64338Y301333D03*
D128*
X20333Y302000D03*
D83*
X30328Y302000D03*
D152*
X37998Y302000D03*
D28*
X48336Y302000D03*
D85*
X55334Y302000D03*
D28*
X64338Y302000D03*
D96*
X20333Y302666D03*
D80*
X30328Y302666D03*
X38329Y302666D03*
D87*
X48006Y302666D03*
X56007Y302666D03*
D25*
X64338Y302666D03*
D128*
X20333Y303333D03*
D83*
X30328Y303333D03*
X38329Y303333D03*
D23*
X47663Y303333D03*
D219*
X60008Y303333D03*
D96*
X20333Y304000D03*
D80*
X30328Y304000D03*
D86*
X38659Y304000D03*
D84*
X47333Y304000D03*
D220*
X60668Y304000D03*
D40*
X19672Y304665D03*
X29655Y304665D03*
D216*
X42659Y304665D03*
D214*
X61341Y304665D03*
D39*
X19672Y305332D03*
X29655Y305332D03*
D111*
X42659Y305332D03*
D221*
X61341Y305332D03*
D40*
X19672Y305999D03*
X29655Y305999D03*
D115*
X42329Y305999D03*
D44*
X58001Y305999D03*
D200*
X64338Y305999D03*
D39*
X19672Y306666D03*
X29655Y306666D03*
D47*
X38329Y306666D03*
D205*
X44336Y306666D03*
D47*
X56998Y306666D03*
D177*
X64338Y306666D03*
D48*
X20333Y307332D03*
D45*
X30328Y307332D03*
D48*
X44336Y307332D03*
D167*
X56667Y307332D03*
D200*
X64338Y307332D03*
D46*
X20333Y307999D03*
D47*
X30328Y307999D03*
D177*
X56337Y307999D03*
X64338Y307999D03*
D48*
X20333Y308666D03*
D45*
X30328Y308666D03*
D200*
X56337Y308666D03*
X64338Y308666D03*
D46*
X20333Y309333D03*
D47*
X30328Y309333D03*
D43*
X56667Y309333D03*
D177*
X64338Y309333D03*
D48*
X20333Y309999D03*
D45*
X30328Y309999D03*
D57*
X56998Y309999D03*
D200*
X64338Y309999D03*
D46*
X20333Y310666D03*
D47*
X30328Y310666D03*
D222*
X60668Y310666D03*
D223*
X60668Y311333D03*
D110*
X61011Y312000D03*
D224*
X61671Y312666D03*
D82*
X29997Y766665D03*
D83*
X40996Y766665D03*
D10*
X51333Y766665D03*
D23*
X63665Y766665D03*
X77000Y766665D03*
D33*
X89675Y766665D03*
D30*
X30328Y767331D03*
D80*
X40996Y767331D03*
D149*
X51333Y767331D03*
D27*
X63665Y767331D03*
X77000Y767331D03*
D15*
X88341Y767331D03*
D29*
X30988Y767998D03*
D83*
X40996Y767998D03*
D94*
X51664Y767998D03*
D21*
X64008Y767998D03*
D85*
X76670Y767998D03*
D125*
X87998Y767998D03*
D84*
X31331Y768665D03*
D80*
X40996Y768665D03*
D15*
X52324Y768665D03*
D25*
X64338Y768665D03*
D96*
X76340Y768665D03*
D91*
X87668Y768665D03*
D21*
X32004Y769332D03*
D83*
X40996Y769332D03*
D17*
X52667Y769332D03*
D28*
X64338Y769332D03*
D128*
X76340Y769332D03*
D92*
X87338Y769332D03*
D86*
X32664Y769998D03*
D80*
X40996Y769998D03*
D220*
X52667Y769998D03*
D225*
X70333Y769998D03*
D86*
X83337Y769998D03*
D80*
X91669Y769998D03*
D29*
X32995Y770665D03*
D83*
X40996Y770665D03*
D226*
X47663Y770665D03*
D29*
X56337Y770665D03*
D227*
X70333Y770665D03*
D23*
X82995Y770665D03*
D83*
X91669Y770665D03*
D30*
X33655Y771332D03*
D80*
X40996Y771332D03*
D153*
X47333Y771332D03*
D30*
X56998Y771332D03*
D225*
X70333Y771332D03*
D27*
X82995Y771332D03*
D80*
X91669Y771332D03*
D85*
X33998Y771999D03*
D83*
X40996Y771999D03*
D82*
X57328Y771999D03*
D228*
X70333Y771999D03*
D23*
X82995Y771999D03*
D83*
X91669Y771999D03*
D87*
X34671Y772665D03*
D80*
X40996Y772665D03*
D96*
X57671Y772665D03*
D229*
X70333Y772665D03*
D27*
X82995Y772665D03*
D80*
X91669Y772665D03*
D82*
X35331Y773332D03*
D83*
X40996Y773332D03*
D85*
X58001Y773332D03*
D23*
X66332Y773332D03*
X74333Y773332D03*
D82*
X83337Y773332D03*
D83*
X91669Y773332D03*
D86*
X35992Y773999D03*
D80*
X40996Y773999D03*
D84*
X58001Y773999D03*
D27*
X66332Y773999D03*
X74333Y773999D03*
D91*
X87668Y773999D03*
D175*
X38329Y774664D03*
D44*
X58001Y774664D03*
D108*
X66332Y774664D03*
X74333Y774664D03*
D230*
X87998Y774664D03*
D38*
X38672Y775331D03*
D203*
X58001Y775331D03*
D177*
X67005Y775331D03*
D46*
X73673Y775331D03*
D176*
X88671Y775331D03*
D231*
X38672Y775998D03*
D44*
X58001Y775998D03*
D200*
X67005Y775998D03*
D48*
X73673Y775998D03*
D175*
X89002Y775998D03*
D46*
X36335Y776665D03*
D47*
X40996Y776665D03*
D203*
X58001Y776665D03*
D177*
X67005Y776665D03*
D46*
X73673Y776665D03*
D176*
X88671Y776665D03*
D45*
X35662Y777331D03*
X40996Y777331D03*
D44*
X58001Y777331D03*
D45*
X67666Y777331D03*
X73000Y777331D03*
D108*
X85001Y777331D03*
D45*
X91669Y777331D03*
D177*
X35001Y777998D03*
D47*
X40996Y777998D03*
D46*
X57671Y777998D03*
D47*
X67666Y777998D03*
X73000Y777998D03*
D70*
X84671Y777998D03*
D47*
X91669Y777998D03*
D232*
X34671Y778665D03*
D45*
X40996Y778665D03*
D104*
X57328Y778665D03*
D67*
X68009Y778665D03*
D167*
X72669Y778665D03*
D45*
X84328Y778665D03*
X91669Y778665D03*
D203*
X33998Y779332D03*
D47*
X40996Y779332D03*
D144*
X47333Y779332D03*
D58*
X56998Y779332D03*
D39*
X70345Y779332D03*
D47*
X84328Y779332D03*
X91669Y779332D03*
D104*
X33325Y779998D03*
D45*
X40996Y779998D03*
D233*
X47663Y779998D03*
D234*
X56007Y779998D03*
D40*
X70345Y779998D03*
D45*
X84328Y779998D03*
X91669Y779998D03*
D47*
X32995Y780665D03*
X40996Y780665D03*
D222*
X52667Y780665D03*
D235*
X70333Y780665D03*
D43*
X84658Y780665D03*
D47*
X91669Y780665D03*
D104*
X32664Y781332D03*
D45*
X40996Y781332D03*
D189*
X52324Y781332D03*
D236*
X70333Y781332D03*
D189*
X88341Y781332D03*
D237*
X32004Y781999D03*
D47*
X40996Y781999D03*
D176*
X51994Y781999D03*
D235*
X70333Y781999D03*
D110*
X88341Y781999D03*
D44*
X31331Y782665D03*
D45*
X40996Y782665D03*
D175*
X51664Y782665D03*
D57*
X70333Y782665D03*
D51*
X88671Y782665D03*
D43*
X30658Y783332D03*
D47*
X40996Y783332D03*
D238*
X51333Y783332D03*
D58*
X70333Y783332D03*
D53*
X89002Y783332D03*
D57*
X51003Y783999D03*
D27*
X152337Y875998D03*
X173673Y875998D03*
D239*
X401663Y875998D03*
D27*
X422339Y875998D03*
D23*
X152337Y876664D03*
X173673Y876664D03*
D92*
X401333Y876664D03*
D23*
X422339Y876664D03*
D27*
X152337Y877331D03*
X173673Y877331D03*
D91*
X401003Y877331D03*
D27*
X422339Y877331D03*
D23*
X152337Y877998D03*
X173673Y877998D03*
D18*
X400660Y877998D03*
D23*
X422339Y877998D03*
D27*
X152337Y878665D03*
X173673Y878665D03*
D15*
X400329Y878665D03*
D27*
X422339Y878665D03*
D23*
X152337Y879331D03*
X173673Y879331D03*
D150*
X399999Y879331D03*
D23*
X422339Y879331D03*
D27*
X152337Y879998D03*
X173673Y879998D03*
D80*
X402336Y879998D03*
D27*
X422339Y879998D03*
D23*
X152337Y880665D03*
X173673Y880665D03*
D82*
X402006Y880665D03*
D23*
X422339Y880665D03*
D27*
X152337Y881332D03*
X173673Y881332D03*
D19*
X401333Y881332D03*
D27*
X422339Y881332D03*
D23*
X152337Y881998D03*
X173673Y881998D03*
D82*
X400660Y881998D03*
D23*
X422339Y881998D03*
D27*
X152337Y882665D03*
D15*
X170332Y882665D03*
D86*
X399999Y882665D03*
D15*
X418998Y882665D03*
D23*
X152337Y883332D03*
D18*
X170002Y883332D03*
D82*
X399339Y883332D03*
D18*
X418668Y883332D03*
D27*
X152337Y883999D03*
D59*
X169672Y883999D03*
D19*
X398666Y883999D03*
D59*
X418338Y883999D03*
D108*
X152337Y884664D03*
D216*
X169329Y884664D03*
D240*
X398666Y884664D03*
D216*
X417995Y884664D03*
D107*
X152337Y885331D03*
D241*
X168999Y885331D03*
D43*
X397993Y885331D03*
D241*
X417665Y885331D03*
D108*
X152337Y885998D03*
D104*
X164668Y885998D03*
D108*
X173673Y885998D03*
D104*
X397332Y885998D03*
X413334Y885998D03*
D108*
X422339Y885998D03*
D107*
X152337Y886664D03*
D43*
X164668Y886664D03*
D107*
X173673Y886664D03*
D43*
X397332Y886664D03*
X413334Y886664D03*
D107*
X422339Y886664D03*
D108*
X152337Y887331D03*
D45*
X164338Y887331D03*
D108*
X173673Y887331D03*
D104*
X397332Y887331D03*
D45*
X413004Y887331D03*
D108*
X422339Y887331D03*
D107*
X152337Y887998D03*
D47*
X164338Y887998D03*
D107*
X173673Y887998D03*
D43*
X397332Y887998D03*
D107*
X406337Y887998D03*
D47*
X413004Y887998D03*
D107*
X422339Y887998D03*
D108*
X152337Y888665D03*
D45*
X164338Y888665D03*
D108*
X173673Y888665D03*
D104*
X397332Y888665D03*
D108*
X406337Y888665D03*
D45*
X413004Y888665D03*
D108*
X422339Y888665D03*
D107*
X152337Y889331D03*
D43*
X164668Y889331D03*
D107*
X173673Y889331D03*
D43*
X397332Y889331D03*
X405994Y889331D03*
X413334Y889331D03*
D107*
X422339Y889331D03*
D108*
X152337Y889998D03*
D57*
X164998Y889998D03*
D108*
X173673Y889998D03*
D104*
X397332Y889998D03*
X405994Y889998D03*
D57*
X413664Y889998D03*
D108*
X422339Y889998D03*
D235*
X153670Y890665D03*
D241*
X168999Y890665D03*
D58*
X398323Y890665D03*
X405003Y890665D03*
D241*
X417665Y890665D03*
D236*
X153670Y891332D03*
D216*
X169329Y891332D03*
D115*
X401663Y891332D03*
D216*
X417995Y891332D03*
D235*
X153670Y891998D03*
D242*
X169672Y891998D03*
D110*
X401676Y891998D03*
D242*
X418338Y891998D03*
D236*
X153670Y892665D03*
D243*
X170002Y892665D03*
D55*
X401663Y892665D03*
D243*
X418668Y892665D03*
D235*
X153670Y893332D03*
D176*
X170663Y893332D03*
D112*
X401993Y893332D03*
D176*
X419329Y893332D03*
D104*
X402006Y893999D03*
D78*
X182664Y907998D03*
X431330Y907998D03*
D81*
X182664Y908665D03*
X431330Y908665D03*
D78*
X182664Y909331D03*
X431330Y909331D03*
D81*
X182664Y909998D03*
X431330Y909998D03*
D33*
X137655Y910665D03*
D78*
X182664Y910665D03*
D33*
X386321Y910665D03*
D78*
X431330Y910665D03*
D34*
X137655Y911332D03*
D81*
X182664Y911332D03*
D34*
X386321Y911332D03*
D81*
X431330Y911332D03*
D33*
X137655Y911998D03*
D78*
X182664Y911998D03*
D33*
X386321Y911998D03*
D78*
X431330Y911998D03*
D34*
X137655Y912665D03*
D81*
X182664Y912665D03*
D34*
X386321Y912665D03*
D81*
X431330Y912665D03*
D33*
X137655Y913332D03*
D78*
X182664Y913332D03*
D33*
X386321Y913332D03*
D78*
X431330Y913332D03*
D34*
X137655Y913999D03*
D76*
X182664Y913999D03*
D34*
X386321Y913999D03*
D76*
X431330Y913999D03*
D74*
X182664Y914664D03*
X431330Y914664D03*
D72*
X182664Y915331D03*
X431330Y915331D03*
D74*
X182664Y915998D03*
X431330Y915998D03*
D72*
X182664Y916664D03*
X431330Y916664D03*
D68*
X182664Y917331D03*
X431330Y917331D03*
D70*
X182664Y917998D03*
X431330Y917998D03*
D68*
X182664Y918665D03*
X431330Y918665D03*
D70*
X182664Y919331D03*
X431330Y919331D03*
D68*
X182664Y919998D03*
X431330Y919998D03*
D70*
X182664Y920665D03*
X431330Y920665D03*
D68*
X182664Y921332D03*
X431330Y921332D03*
D70*
X182664Y921998D03*
X431330Y921998D03*
D68*
X182664Y922665D03*
X431330Y922665D03*
D70*
X182664Y923332D03*
X431330Y923332D03*
D244*
X370400Y930500D02*
X370400Y999500D01*
X451400Y999500D01*
X451400Y930500D01*
X370400Y930500D01*
X121500Y929400D02*
X121500Y998400D01*
X202500Y998400D01*
X202500Y929400D01*
X121500Y929400D01*
X120100Y70900D02*
X120100Y1900D01*
X120100Y70900D02*
X201100Y70900D01*
X201100Y1900D01*
X120100Y1900D01*
X368700Y1900D02*
X368700Y70900D01*
X449700Y70900D01*
X449700Y1900D01*
X368700Y1900D01*
X70600Y199800D02*
X1600Y199800D01*
X1600Y280800D01*
X70600Y280800D01*
X70600Y199800D01*
X499100Y200900D02*
X568100Y200900D01*
X499100Y200900D02*
X499100Y281900D01*
X568100Y281900D01*
X568100Y200900D01*
M02*
