G04 EAGLE Gerber RS-274X export*
G75*
%MOMM*%
%FSLAX34Y34*%
%LPD*%
%INSoldermask Top*%
%IPPOS*%
%AMOC8*
5,1,8,0,0,1.08239X$1,22.5*%
G01*
%ADD10C,3.652400*%
%ADD11C,1.803400*%
%ADD12C,1.676400*%
%ADD13C,2.032000*%
%ADD14C,1.828800*%
%ADD15P,1.979475X8X112.500000*%
%ADD16C,1.930400*%
%ADD17C,1.600200*%
%ADD18P,2.089446X8X292.500000*%
%ADD19P,2.654453X8X22.500000*%
%ADD20P,2.654453X8X112.500000*%
%ADD21C,1.930400*%
%ADD22R,1.854200X0.762000*%
%ADD23C,2.402400*%


D10*
X40000Y40000D03*
X530000Y40000D03*
X530000Y960000D03*
X40000Y960000D03*
D11*
X432100Y258300D03*
X457500Y258300D03*
X444300Y230700D03*
X444300Y205300D03*
X338500Y226300D03*
X363900Y226300D03*
D12*
X363500Y293180D02*
X363500Y308420D01*
X388900Y308420D02*
X388900Y293180D01*
X414300Y293180D02*
X414300Y308420D01*
D13*
X297800Y121700D03*
X272400Y121700D03*
X297800Y147100D03*
X272400Y147100D03*
X297800Y172500D03*
X272400Y172500D03*
X297800Y197900D03*
X272400Y197900D03*
X297800Y223300D03*
X272400Y223300D03*
D14*
X263310Y810684D03*
D15*
X278550Y791316D03*
D14*
X293790Y810684D03*
X306490Y791316D03*
D16*
X116200Y266800D03*
X181200Y266800D03*
D13*
X258800Y21300D03*
X258800Y46700D03*
X258800Y72100D03*
X310100Y21800D03*
X310100Y47200D03*
X310100Y72600D03*
D12*
X509880Y884600D02*
X525120Y884600D01*
X525120Y859200D02*
X509880Y859200D01*
X509880Y833800D02*
X525120Y833800D01*
X52620Y883900D02*
X37380Y883900D01*
X37380Y858500D02*
X52620Y858500D01*
X52620Y833100D02*
X37380Y833100D01*
X37380Y165700D02*
X52620Y165700D01*
X52620Y140300D02*
X37380Y140300D01*
X37380Y114900D02*
X52620Y114900D01*
X509880Y165000D02*
X525120Y165000D01*
X525120Y139600D02*
X509880Y139600D01*
X509880Y114200D02*
X525120Y114200D01*
D13*
X201600Y824300D03*
X125400Y824300D03*
X121800Y178200D03*
X198000Y178200D03*
X197300Y141800D03*
X121100Y141800D03*
X446900Y177800D03*
X370700Y177800D03*
X371600Y141300D03*
X447800Y141300D03*
X467500Y321300D03*
X543700Y321300D03*
X467900Y298300D03*
X544100Y298300D03*
X224400Y288500D03*
X224400Y212300D03*
X235100Y776600D03*
X158900Y776600D03*
X415700Y775600D03*
X339500Y775600D03*
X522300Y775600D03*
X446100Y775600D03*
X451400Y860100D03*
X375200Y860100D03*
X376600Y823200D03*
X452800Y823200D03*
X125000Y860700D03*
X201200Y860700D03*
D17*
X545600Y740400D03*
X520200Y740400D03*
X494800Y740400D03*
X469400Y740400D03*
X444000Y740400D03*
X418600Y740400D03*
X393200Y740400D03*
X367800Y740400D03*
X342400Y740400D03*
X317000Y740400D03*
X291600Y740400D03*
X266200Y740400D03*
X240800Y740400D03*
X215400Y740400D03*
X215400Y715000D03*
X215400Y689600D03*
X215400Y664200D03*
X215400Y638800D03*
X215400Y613400D03*
X215400Y588000D03*
X240800Y588000D03*
X266200Y588000D03*
X291600Y588000D03*
X317000Y588000D03*
X342400Y588000D03*
X367800Y588000D03*
X393200Y588000D03*
X418600Y588000D03*
X444000Y588000D03*
X469400Y588000D03*
X494800Y588000D03*
X520200Y588000D03*
X545600Y588000D03*
D15*
X171100Y587600D03*
X171100Y613000D03*
X171100Y638400D03*
X171100Y663800D03*
X171100Y689200D03*
X171100Y714600D03*
X171100Y740000D03*
D18*
X222900Y540400D03*
X222900Y515000D03*
X222900Y489600D03*
X222900Y464200D03*
X222900Y438800D03*
X222900Y413400D03*
X222900Y388000D03*
X222900Y362600D03*
D19*
X393400Y965000D03*
X428400Y965000D03*
X144500Y963900D03*
X179500Y963900D03*
X143100Y36400D03*
X178100Y36400D03*
X391700Y36400D03*
X426700Y36400D03*
D20*
X36100Y222800D03*
X36100Y257800D03*
X533600Y223900D03*
X533600Y258900D03*
D21*
X168090Y434700D02*
X150310Y434700D01*
X150310Y460100D02*
X168090Y460100D01*
X168090Y409300D02*
X150310Y409300D01*
X150310Y383900D02*
X168090Y383900D01*
X168090Y358500D02*
X150310Y358500D01*
X150310Y485500D02*
X168090Y485500D01*
X168090Y510900D02*
X150310Y510900D01*
X150310Y536300D02*
X168090Y536300D01*
D22*
X317412Y276250D03*
X317412Y288950D03*
X317412Y301650D03*
X317412Y314350D03*
X252388Y314350D03*
X252388Y301650D03*
X252388Y288950D03*
X252388Y276250D03*
D23*
X300000Y390000D03*
X84000Y221000D03*
M02*
